<svg width="17" height="17" viewBox="0 0 17 17" fill="none" xmlns="http://www.w3.org/2000/svg">
<path fill-rule="evenodd" clip-rule="evenodd" d="M12.471 6.33833C12.1976 6.06496 11.7544 6.06496 11.4811 6.33833L9.27909 8.54029C9.07291 8.74646 8.94766 8.87094 8.84698 8.95642C8.77401 9.01836 8.74198 9.03482 8.73521 9.0378C8.67501 9.05731 8.61018 9.05729 8.54999 9.03774C8.55101 9.03807 8.55156 9.03831 8.55157 9.03834C8.55171 9.03859 8.52178 9.0272 8.43841 8.95642C8.33772 8.87094 8.21247 8.74646 8.0063 8.54029L5.80433 6.33833C5.53097 6.06496 5.08775 6.06496 4.81438 6.33833C4.54102 6.61169 4.54102 7.05491 4.81438 7.32828L7.01635 9.53024L7.03398 9.54787C7.21684 9.73075 7.38275 9.89668 7.53236 10.0237C7.69301 10.1601 7.88031 10.2922 8.11736 10.3692C8.4588 10.4802 8.82659 10.4802 9.16802 10.3692C9.40507 10.2922 9.59237 10.1601 9.75303 10.0237C9.90264 9.89668 10.0685 9.73076 10.2514 9.54787C10.2573 9.54201 10.2631 9.53613 10.269 9.53024L12.471 7.32828C12.7444 7.05491 12.7444 6.61169 12.471 6.33833Z" fill="#42B38E"/>
</svg>
