<svg width="20" height="21" viewBox="0 0 20 21" fill="none" xmlns="http://www.w3.org/2000/svg">
	<path d="M16.6923 8.44218L10.4423 14.6922C10.3842 14.7503 10.3153 14.7964 10.2394 14.8278C10.1636 14.8593 10.0822 14.8755 10.0001 14.8755C9.91797 14.8755 9.83664 14.8593 9.76077 14.8278C9.68489 14.7964 9.61596 14.7503 9.55792 14.6922L3.30792 8.44218C3.19064 8.32491 3.12476 8.16585 3.12476 8C3.12476 7.83414 3.19064 7.67508 3.30792 7.55781C3.42519 7.44053 3.58425 7.37465 3.7501 7.37465C3.91596 7.37465 4.07502 7.44053 4.19229 7.55781L10.0001 13.3664L15.8079 7.55781C15.866 7.49974 15.9349 7.45368 16.0108 7.42225C16.0867 7.39082 16.168 7.37465 16.2501 7.37465C16.3322 7.37465 16.4135 7.39082 16.4894 7.42225C16.5653 7.45368 16.6342 7.49974 16.6923 7.55781C16.7504 7.61588 16.7964 7.68482 16.8278 7.76069C16.8593 7.83656 16.8755 7.91787 16.8755 8C16.8755 8.08212 16.8593 8.16344 16.8278 8.23931C16.7964 8.31518 16.7504 8.38412 16.6923 8.44218Z" fill="#747474"/>
</svg>