<svg width="29" height="29" viewBox="0 0 29 29" fill="none" xmlns="http://www.w3.org/2000/svg">
<g id="fi_6421329">
<g id="Icon">
<g id="Group">
<path id="Vector" fill-rule="evenodd" clip-rule="evenodd" d="M25.9746 22.4753H20.4318C18.6596 22.4753 17.2234 21.0391 17.2234 19.2669V16.9336C17.2234 15.1614 18.6596 13.7253 20.4318 13.7253H25.9746V12.2669C25.9746 11.4164 25.6363 10.5998 25.0354 9.99776C24.4334 9.39693 23.6168 9.05859 22.7663 9.05859C18.7261 9.05859 10.4731 9.05859 6.43294 9.05859C5.58244 9.05859 4.76578 9.39693 4.16378 9.99776C3.56294 10.5998 3.22461 11.4164 3.22461 12.2669V23.9336C3.22461 24.7841 3.56294 25.6008 4.16378 26.2028C4.76578 26.8036 5.58244 27.1419 6.43294 27.1419H22.7663C23.6168 27.1419 24.4334 26.8036 25.0354 26.2028C25.6363 25.6008 25.9746 24.7841 25.9746 23.9336V22.4753ZM25.9746 15.4753V20.7253H20.4318C19.6268 20.7253 18.9734 20.0719 18.9734 19.2669V16.9336C18.9734 16.1286 19.6268 15.4753 20.4318 15.4753H25.9746ZM21.0163 16.9336C21.6603 16.9336 22.1829 17.4563 22.1829 18.1003C22.1829 18.7443 21.6603 19.2669 21.0163 19.2669C20.3723 19.2669 19.8496 18.7443 19.8496 18.1003C19.8496 17.4563 20.3723 16.9336 21.0163 16.9336Z" fill="#42B38E"/>
<path id="Vector_2" fill-rule="evenodd" clip-rule="evenodd" d="M19.3694 7.8923H22.7667C22.9896 7.8923 23.2112 7.9098 23.4294 7.94246L23.9824 6.7548C24.1866 6.3173 23.9976 5.79696 23.5601 5.5928L16.1576 2.14063C15.7201 1.93646 15.1997 2.12663 14.9956 2.56413L14.3691 3.90696L18.2191 5.7013C19.0707 6.09913 19.5199 7.00913 19.3694 7.8923Z" fill="#1E6F54"/>
<path id="Vector_3" fill-rule="evenodd" clip-rule="evenodd" d="M7.2207 7.89164H18.1629C18.3449 7.45998 18.1547 6.95831 17.7265 6.75881L10.324 3.30665C9.88654 3.10248 9.3662 3.29265 9.16204 3.73015L7.2207 7.89164Z" fill="#1E6F54"/>
</g>
</g>
</g>
</svg>
