<svg width="14" height="15" viewBox="0 0 14 15" fill="none" xmlns="http://www.w3.org/2000/svg">
<path d="M12.2921 4.96169L5.62543 11.6284C5.58673 11.6671 5.54078 11.6978 5.49019 11.7188C5.43961 11.7398 5.38539 11.7506 5.33064 11.7506C5.27588 11.7506 5.22166 11.7398 5.17108 11.7188C5.12049 11.6978 5.07454 11.6671 5.03584 11.6284L2.11918 8.71169C2.04099 8.63351 1.99707 8.52747 1.99707 8.4169C1.99707 8.30633 2.04099 8.20029 2.11918 8.12211C2.19736 8.04392 2.3034 8 2.41397 8C2.52454 8 2.63058 8.04392 2.70876 8.12211L5.33064 10.7445L11.7025 4.37211C11.7807 4.29392 11.8867 4.25 11.9973 4.25C12.1079 4.25 12.2139 4.29392 12.2921 4.37211C12.3703 4.45029 12.4142 4.55633 12.4142 4.6669C12.4142 4.77747 12.3703 4.88351 12.2921 4.96169Z" fill="white"/>
</svg>
