<svg width="64" height="64" viewBox="0 0 64 64" fill="none" xmlns="http://www.w3.org/2000/svg">
<circle cx="32" cy="32" r="32" fill="#F6F8FC"/>
<path d="M37.25 30.25C35.8655 30.25 34.5122 30.6605 33.361 31.4297C32.2099 32.1989 31.3127 33.2921 30.7828 34.5712C30.253 35.8503 30.1144 37.2578 30.3845 38.6156C30.6546 39.9735 31.3213 41.2208 32.3003 42.1997C33.2792 43.1787 34.5265 43.8454 35.8844 44.1155C37.2422 44.3856 38.6497 44.247 39.9288 43.7172C41.2079 43.1873 42.3011 42.2901 43.0703 41.139C43.8395 39.9878 44.25 38.6345 44.25 37.25C44.2479 35.3941 43.5098 33.6149 42.1974 32.3026C40.8851 30.9903 39.1059 30.2521 37.25 30.25ZM38.125 40.7054V40.75C38.125 40.9821 38.0328 41.2046 37.8687 41.3687C37.7046 41.5328 37.4821 41.625 37.25 41.625C37.0179 41.625 36.7954 41.5328 36.6313 41.3687C36.4672 41.2046 36.375 40.9821 36.375 40.75C36.1429 40.75 35.9204 40.6578 35.7563 40.4937C35.5922 40.3296 35.5 40.1071 35.5 39.875C35.5 39.6429 35.5922 39.4204 35.7563 39.2563C35.9204 39.0922 36.1429 39 36.375 39H37.6875C37.8035 39 37.9148 38.9539 37.9969 38.8719C38.0789 38.7898 38.125 38.6785 38.125 38.5625C38.125 38.4465 38.0789 38.3352 37.9969 38.2531C37.9148 38.1711 37.8035 38.125 37.6875 38.125H36.8125C36.2708 38.1245 35.7485 37.923 35.3468 37.5595C34.9451 37.196 34.6926 36.6964 34.6382 36.1574C34.5837 35.6184 34.7312 35.0784 35.0521 34.6419C35.3729 34.2054 35.8443 33.9035 36.375 33.7946V33.75C36.375 33.5179 36.4672 33.2954 36.6313 33.1313C36.7954 32.9672 37.0179 32.875 37.25 32.875C37.4821 32.875 37.7046 32.9672 37.8687 33.1313C38.0328 33.2954 38.125 33.5179 38.125 33.75C38.3571 33.75 38.5796 33.8422 38.7437 34.0063C38.9078 34.1704 39 34.3929 39 34.625C39 34.8571 38.9078 35.0796 38.7437 35.2437C38.5796 35.4078 38.3571 35.5 38.125 35.5H36.8125C36.6965 35.5 36.5852 35.5461 36.5031 35.6281C36.4211 35.7102 36.375 35.8215 36.375 35.9375C36.375 36.0535 36.4211 36.1648 36.5031 36.2469C36.5852 36.3289 36.6965 36.375 36.8125 36.375H37.6875C38.2292 36.3755 38.7515 36.577 39.1532 36.9405C39.5549 37.304 39.8074 37.8036 39.8618 38.3426C39.9163 38.8816 39.7688 39.4216 39.448 39.8581C39.1271 40.2946 38.6557 40.5965 38.125 40.7054Z" fill="#114D39"/>
<path d="M30.4163 31.7917C31.2346 30.7647 32.274 29.9355 33.4572 29.3659C34.6404 28.7963 35.9368 28.5009 37.25 28.5017C37.3463 28.5017 37.4425 28.5017 37.53 28.5105C37.925 27.6888 38.1284 26.7883 38.125 25.8767C38.1253 24.7334 37.8056 23.6127 37.202 22.6417C36.5985 21.6706 35.7352 20.8879 34.7098 20.382C33.6844 19.8762 32.538 19.6675 31.4001 19.7795C30.2623 19.8914 29.1785 20.3197 28.2714 21.0157C27.3643 21.7117 26.6701 22.6477 26.2675 23.7178C25.8648 24.7879 25.7696 25.9493 25.9928 27.0707C26.216 28.192 26.7486 29.2285 27.5304 30.0629C28.3121 30.8972 29.3118 31.4961 30.4163 31.7917Z" fill="#42B38E"/>
<path d="M29.6638 32.8945C26.9838 33.0414 24.4622 34.2102 22.618 36.1602C20.7737 38.1102 19.7473 40.6931 19.75 43.377H31.0025C29.6662 42.0151 28.8121 40.2535 28.5704 38.3609C28.3287 36.4683 28.7127 34.5486 29.6638 32.8945Z" fill="#42B38E"/>
</svg>
