<svg width="64" height="64" viewBox="0 0 64 64" fill="none" xmlns="http://www.w3.org/2000/svg">
<circle cx="32" cy="32" r="32" fill="#F6F8FC"/>
<g clip-path="url(#clip0_1484_44639)">
<path d="M36.8225 25.0374H22.3858C22.055 25.0374 21.7869 24.7693 21.7869 24.4385V23.2407C21.7869 22.9099 22.055 22.6418 22.3858 22.6418H36.8225C37.1533 22.6418 37.4214 22.9099 37.4214 23.2407V24.4385C37.4214 24.7693 37.1533 25.0374 36.8225 25.0374ZM35.7611 20.7131C35.7012 20.4376 35.4557 20.246 35.1801 20.246H30.0533V18.4492C30.0533 18.2012 29.8521 18 29.6041 18C29.356 18 29.1548 18.2012 29.1548 18.4492V20.246H24.028C23.7525 20.246 23.5069 20.4377 23.447 20.7131L23.2194 21.7433H35.9886L35.7611 20.7131ZM33.9464 34.4706H31.2512V37.1658H33.9464V34.4706ZM27.9571 27.8824H25.2619V30.5775H27.9571V27.8824ZM27.6576 46H31.5506V40.4599H27.6576V46ZM27.9571 34.4706H25.2619V37.1658H27.9571V34.4706ZM21.8181 25.9358H37.3903V46H32.4491V40.0107C32.4491 39.7627 32.2479 39.5615 31.9999 39.5615H27.2084C26.9604 39.5615 26.7592 39.7626 26.7592 40.0107V46H22.4169C22.0875 46 21.818 45.7305 21.818 45.4011L21.8181 25.9358ZM30.3528 31.0268C30.3528 31.2747 30.554 31.476 30.802 31.476H34.3956C34.6436 31.476 34.8448 31.2748 34.8448 31.0268V27.4332C34.8448 27.1852 34.6436 26.984 34.3956 26.984H30.802C30.5541 26.984 30.3528 27.1852 30.3528 27.4332V31.0268ZM30.3528 37.615C30.3528 37.863 30.554 38.0642 30.802 38.0642H34.3956C34.6436 38.0642 34.8448 37.863 34.8448 37.615V34.0214C34.8448 33.7734 34.6436 33.5722 34.3956 33.5722H30.802C30.5541 33.5722 30.3528 33.7734 30.3528 34.0214V37.615ZM24.3635 31.0268C24.3635 31.2747 24.5647 31.476 24.8127 31.476H28.4063C28.6543 31.476 28.8555 31.2748 28.8555 31.0268V27.4332C28.8555 27.1852 28.6543 26.984 28.4063 26.984H24.8127C24.5648 26.984 24.3635 27.1852 24.3635 27.4332V31.0268ZM24.3635 37.615C24.3635 37.863 24.5647 38.0642 24.8127 38.0642H28.4063C28.6543 38.0642 28.8555 37.863 28.8555 37.615V34.0214C28.8555 33.7734 28.6543 33.5722 28.4063 33.5722H24.8127C24.5648 33.5722 24.3635 33.7734 24.3635 34.0214V37.615ZM33.9464 27.8824H31.2512V30.5775H33.9464V27.8824ZM40.5346 31.4759H38.2886V32.9732H40.5346V31.4759ZM40.5346 36.2674H38.2886V37.7647H40.5346V36.2674ZM40.5346 41.0588H38.2886V42.5561H40.5346V41.0588ZM42.9004 28.5352L38.2886 27.6128V30.5775H40.9838C41.2294 30.5775 41.433 30.7812 41.433 31.0268V33.4225C41.433 33.668 41.2294 33.8717 40.9838 33.8717H38.2886V35.369H40.9838C41.2294 35.369 41.433 35.5727 41.433 35.8183V38.214C41.433 38.4595 41.2294 38.6632 40.9838 38.6632H38.2886V40.1605H40.9838C41.2294 40.1605 41.433 40.3642 41.433 40.6098V43.0055C41.433 43.251 41.2294 43.4547 40.9838 43.4547H38.2886V46.0002H42.7806C43.11 46.0002 43.3795 45.7307 43.3795 45.4013V29.1224C43.3795 28.8348 43.1759 28.5891 42.9004 28.5352Z" fill="#114D39"/>
</g>
<g clip-path="url(#clip1_1484_44639)">
<path d="M36.8225 25.0374H22.3858C22.055 25.0374 21.7869 24.7693 21.7869 24.4385V23.2407C21.7869 22.9099 22.055 22.6418 22.3858 22.6418H36.8225C37.1533 22.6418 37.4214 22.9099 37.4214 23.2407V24.4385C37.4214 24.7693 37.1533 25.0374 36.8225 25.0374ZM35.7611 20.7131C35.7012 20.4376 35.4557 20.246 35.1801 20.246H30.0533V18.4492C30.0533 18.2012 29.8521 18 29.6041 18C29.356 18 29.1548 18.2012 29.1548 18.4492V20.246H24.028C23.7525 20.246 23.5069 20.4377 23.447 20.7131L23.2194 21.7433H35.9886L35.7611 20.7131ZM33.9464 34.4706H31.2512V37.1658H33.9464V34.4706ZM27.9571 27.8824H25.2619V30.5775H27.9571V27.8824ZM27.6576 46H31.5506V40.4599H27.6576V46ZM27.9571 34.4706H25.2619V37.1658H27.9571V34.4706ZM21.8181 25.9358H37.3903V46H32.4491V40.0107C32.4491 39.7627 32.2479 39.5615 31.9999 39.5615H27.2084C26.9604 39.5615 26.7592 39.7626 26.7592 40.0107V46H22.4169C22.0875 46 21.818 45.7305 21.818 45.4011L21.8181 25.9358ZM30.3528 31.0268C30.3528 31.2747 30.554 31.476 30.802 31.476H34.3956C34.6436 31.476 34.8448 31.2748 34.8448 31.0268V27.4332C34.8448 27.1852 34.6436 26.984 34.3956 26.984H30.802C30.5541 26.984 30.3528 27.1852 30.3528 27.4332V31.0268ZM30.3528 37.615C30.3528 37.863 30.554 38.0642 30.802 38.0642H34.3956C34.6436 38.0642 34.8448 37.863 34.8448 37.615V34.0214C34.8448 33.7734 34.6436 33.5722 34.3956 33.5722H30.802C30.5541 33.5722 30.3528 33.7734 30.3528 34.0214V37.615ZM24.3635 31.0268C24.3635 31.2747 24.5647 31.476 24.8127 31.476H28.4063C28.6543 31.476 28.8555 31.2748 28.8555 31.0268V27.4332C28.8555 27.1852 28.6543 26.984 28.4063 26.984H24.8127C24.5648 26.984 24.3635 27.1852 24.3635 27.4332V31.0268ZM24.3635 37.615C24.3635 37.863 24.5647 38.0642 24.8127 38.0642H28.4063C28.6543 38.0642 28.8555 37.863 28.8555 37.615V34.0214C28.8555 33.7734 28.6543 33.5722 28.4063 33.5722H24.8127C24.5648 33.5722 24.3635 33.7734 24.3635 34.0214V37.615ZM33.9464 27.8824H31.2512V30.5775H33.9464V27.8824ZM40.5346 31.4759H38.2886V32.9732H40.5346V31.4759ZM40.5346 36.2674H38.2886V37.7647H40.5346V36.2674ZM40.5346 41.0588H38.2886V42.5561H40.5346V41.0588ZM42.9004 28.5352L38.2886 27.6128V30.5775H40.9838C41.2294 30.5775 41.433 30.7812 41.433 31.0268V33.4225C41.433 33.668 41.2294 33.8717 40.9838 33.8717H38.2886V35.369H40.9838C41.2294 35.369 41.433 35.5727 41.433 35.8183V38.214C41.433 38.4595 41.2294 38.6632 40.9838 38.6632H38.2886V40.1605H40.9838C41.2294 40.1605 41.433 40.3642 41.433 40.6098V43.0055C41.433 43.251 41.2294 43.4547 40.9838 43.4547H38.2886V46.0002H42.7806C43.11 46.0002 43.3795 45.7307 43.3795 45.4013V29.1224C43.3795 28.8348 43.1759 28.5891 42.9004 28.5352Z" fill="#42B38E"/>
</g>
<defs>
<clipPath id="clip0_1484_44639">
<rect width="17.5" height="28" fill="white" transform="translate(20.3333 18)"/>
</clipPath>
<clipPath id="clip1_1484_44639">
<rect width="5.83333" height="28" fill="white" transform="translate(37.8333 18)"/>
</clipPath>
</defs>
</svg>
