<svg width="64" height="64" viewBox="0 0 64 64" fill="none" xmlns="http://www.w3.org/2000/svg">
<circle cx="32" cy="32" r="32" fill="#F6F8FC"/>
<path d="M16.0002 40.6548H28.0402C28.4135 40.6548 28.7068 40.3548 28.7068 39.9881V37.4548C28.7068 35.1815 26.8535 33.3281 24.5802 33.3281H19.4668C17.1868 33.3281 15.3335 35.1815 15.3335 37.4548V39.9881C15.3335 40.3548 15.6335 40.6548 16.0002 40.6548Z" fill="#114D39"/>
<path d="M22.0199 32.6794C24.2106 32.6794 25.9866 30.9035 25.9866 28.7128C25.9866 26.522 24.2106 24.7461 22.0199 24.7461C19.8292 24.7461 18.0532 26.522 18.0532 28.7128C18.0532 30.9035 19.8292 32.6794 22.0199 32.6794Z" fill="#42B38E"/>
<path d="M32.0002 31.1733C34.5334 31.1733 36.5869 29.1198 36.5869 26.5867C36.5869 24.0535 34.5334 22 32.0002 22C29.4671 22 27.4136 24.0535 27.4136 26.5867C27.4136 29.1198 29.4671 31.1733 32.0002 31.1733Z" fill="#42B38E"/>
<path d="M35.0398 32.1953H28.9598C28.2998 32.1953 27.6531 32.3353 27.0598 32.5953C28.8265 33.502 30.0398 35.3353 30.0398 37.4553V39.9886C30.0398 40.222 29.9931 40.442 29.9198 40.6553H39.1598C39.5265 40.6553 39.8265 40.3553 39.8265 39.9886V36.982C39.8265 34.342 37.6798 32.1953 35.0398 32.1953Z" fill="#114D39"/>
<path d="M41.9801 32.6794C44.1708 32.6794 45.9468 30.9035 45.9468 28.7128C45.9468 26.522 44.1708 24.7461 41.9801 24.7461C39.7894 24.7461 38.0134 26.522 38.0134 28.7128C38.0134 30.9035 39.7894 32.6794 41.9801 32.6794Z" fill="#42B38E"/>
<path d="M44.5398 33.3281H39.9331C40.6998 34.3481 41.1598 35.6081 41.1598 36.9815V39.9881C41.1598 40.2215 41.1064 40.4415 41.0331 40.6548H47.9998C48.3664 40.6548 48.6664 40.3548 48.6664 39.9881V37.4548C48.6664 35.1815 46.8131 33.3281 44.5398 33.3281Z" fill="#114D39"/>
</svg>
