<svg width="64" height="64" viewBox="0 0 64 64" fill="none" xmlns="http://www.w3.org/2000/svg">
<circle cx="32" cy="32" r="32" fill="#F6F8FC"/>
<path d="M32.002 32.5397C36.002 32.5397 39.2718 29.2699 39.2718 25.2699C39.2718 21.2698 36.002 18 32.002 18C28.0019 18 24.7322 21.2698 24.7322 25.2699C24.7322 29.2699 28.002 32.5397 32.002 32.5397Z" fill="#42B38E"/>
<path d="M44.4781 38.3481C44.2876 37.8719 44.0337 37.4274 43.748 37.0147C42.2876 34.856 40.0337 33.4274 37.494 33.0782C37.1766 33.0465 36.8274 33.1099 36.5734 33.3004C35.24 34.2845 33.6528 34.7925 32.0019 34.7925C30.3511 34.7925 28.7638 34.2845 27.4305 33.3004C27.1765 33.1099 26.8273 33.0147 26.5098 33.0782C23.9702 33.4274 21.6845 34.856 20.2559 37.0147C19.9702 37.4274 19.7162 37.9036 19.5258 38.3481C19.4305 38.5386 19.4623 38.7608 19.5575 38.9513C19.8115 39.3957 20.1289 39.8402 20.4146 40.2211C20.859 40.8243 21.3352 41.364 21.875 41.8719C22.3194 42.3163 22.8273 42.729 23.3353 43.1417C25.8432 45.0148 28.8591 45.9988 31.9702 45.9988C35.0813 45.9988 38.0972 45.0147 40.6051 43.1417C41.113 42.7608 41.621 42.3163 42.0655 41.8719C42.5734 41.364 43.0813 40.8242 43.5258 40.2211C43.8432 39.8084 44.129 39.3957 44.3829 38.9513C44.5416 38.7608 44.5733 38.5385 44.4781 38.3481Z" fill="#114D39"/>
</svg>
