<svg width="29" height="29" viewBox="0 0 29 29" fill="none" xmlns="http://www.w3.org/2000/svg">
<g id="fi_8033997">
<g id="Group">
<path id="Vector" d="M8.75709 5.35923C8.91651 4.39061 9.35358 3.50308 9.99247 2.76562C8.40894 2.79911 7.03289 3.54956 6.29883 4.64644C6.76913 4.77293 7.29443 4.92876 7.80663 5.08066C8.11909 5.17337 8.44843 5.271 8.75709 5.35923Z" fill="#1E6F54"/>
<path id="Vector_2" d="M14.594 12.6797C14.1868 12.6797 13.8555 13.011 13.8555 13.4182V14.1568C13.8555 14.564 14.1868 14.8953 14.594 14.8953C15.0012 14.8953 15.3326 14.564 15.3326 14.1568V13.4182C15.3326 13.011 15.0012 12.6797 14.594 12.6797Z" fill="#1E6F54"/>
<path id="Vector_3" d="M4.13293 7.46367C5.69273 8.78994 6.62732 9.7853 7.10048 10.654C8.70676 11.5685 10.6043 12.1875 12.6112 12.433C12.9742 11.7035 13.7273 11.2008 14.5958 11.2008C15.4647 11.2008 16.2179 11.7037 16.5807 12.4335C18.5966 12.188 20.4916 11.5734 22.1011 10.653C22.7706 9.35965 23.8371 8.48856 24.5296 7.92333C24.8002 7.70246 25.014 7.52797 25.1653 7.36224C25.6847 6.79322 25.5345 6.35354 25.3987 6.14207C25.0281 5.56478 24.2607 5.75936 23.8023 5.87561C23.3479 5.99082 22.7746 6.17491 22.1677 6.36979C21.1922 6.68303 19.9783 7.07283 19.4464 7.09001C18.7492 7.11197 18.0356 6.8589 17.2798 6.59046C16.4661 6.30135 15.6246 6.00244 14.6956 6.00244C13.7602 6.00244 12.8956 6.31139 12.0595 6.61021C11.1665 6.92926 10.3232 7.23068 9.54742 7.08386C9.05102 6.98992 8.20638 6.73935 7.3895 6.49701C6.72358 6.29948 6.03497 6.09525 5.50258 5.96625C4.87457 5.81396 4.093 5.62465 3.75263 6.25285C3.60246 6.53 3.54657 6.96505 4.13293 7.46367Z" fill="#1E6F54"/>
<path id="Vector_4" d="M25.8796 14.9168C25.1389 13.6985 24.1563 12.6407 23.0242 11.8242C21.2885 12.8526 19.2502 13.5534 17.0819 13.8587C18.2626 14.9774 18.9766 16.8384 18.9766 18.8808C18.9766 19.0721 18.9701 19.2661 18.9571 19.4572C18.9308 19.8472 18.6062 20.146 18.221 20.146C18.2042 20.146 18.1874 20.1454 18.1705 20.1442C17.7635 20.1167 17.4559 19.7645 17.4834 19.3575C17.4941 19.1994 17.4995 19.039 17.4995 18.8807C17.4995 17.5116 17.1048 16.2312 16.4509 15.3638C16.0552 15.9701 15.3712 16.3721 14.5946 16.3721C13.8185 16.3721 13.1348 15.9706 12.7389 15.3648C12.0853 16.2339 11.6896 17.5171 11.6896 18.8807C11.6896 19.0037 11.6929 19.129 11.6994 19.2534C11.7208 19.6606 11.4078 20.0081 11.0005 20.0295C10.9874 20.0302 10.9743 20.0305 10.9613 20.0305C10.5711 20.0305 10.245 19.7248 10.2244 19.3306C10.2165 19.1807 10.2125 19.0293 10.2125 18.8807C10.2125 16.8455 10.928 14.9781 12.1078 13.8586C10.6074 13.6484 9.17336 13.2518 7.83527 12.6745C7.25079 12.4223 6.69551 12.14 6.17045 11.8294C5.02625 12.6739 4.0208 13.774 3.28876 15.0073C2.14658 16.9315 1.74501 19.0032 2.15805 20.8408C2.58232 22.7283 3.84616 24.2885 5.8129 25.3526C7.93325 26.4998 10.8518 27.0808 14.4921 27.0807C14.5966 27.0807 14.7021 27.0802 14.8077 27.0793C18.4915 27.0459 21.4316 26.4161 23.5462 25.2074C25.4546 24.1165 26.6704 22.5483 27.0623 20.6725C27.4443 18.8435 27.0243 16.7995 25.8796 14.9168Z" fill="#42B38E"/>
<path id="Vector_5" d="M14.6943 4.52605C15.8779 4.52605 16.8847 4.88375 17.773 5.19935C18.3748 5.41308 18.9433 5.615 19.3597 5.615C19.3696 5.615 19.3795 5.6148 19.3894 5.61456C19.0743 3.64211 17.1369 2.11914 14.801 2.11914C12.4608 2.11914 10.5206 3.64763 10.2109 5.62534C10.5866 5.56813 11.0624 5.39812 11.5608 5.21998C12.4714 4.89463 13.5029 4.52605 14.6943 4.52605Z" fill="#1E6F54"/>
<path id="Vector_6" d="M21.7148 4.96362C22.2501 4.79179 22.758 4.62897 23.2042 4.50622C22.4495 3.4861 21.1244 2.79768 19.6094 2.76562C20.2231 3.47398 20.6505 4.32075 20.8246 5.24486C21.1595 5.14196 21.4829 5.03812 21.7148 4.96362Z" fill="#1E6F54"/>
</g>
</g>
</svg>
