<svg width="35" height="35" viewBox="0 0 35 35" fill="none" xmlns="http://www.w3.org/2000/svg">
<rect width="35" height="35" rx="17.5" fill="#42B38E"/>
<path d="M14.167 18.166V24.166C14.167 24.3428 14.0968 24.5124 13.9717 24.6374C13.8467 24.7624 13.6771 24.8327 13.5003 24.8327H10.8337C10.6568 24.8327 10.4873 24.7624 10.3623 24.6374C10.2372 24.5124 10.167 24.3428 10.167 24.166V18.166C10.167 17.9892 10.2372 17.8196 10.3623 17.6946C10.4873 17.5696 10.6568 17.4993 10.8337 17.4993H13.5003C13.6771 17.4993 13.8467 17.5696 13.9717 17.6946C14.0968 17.8196 14.167 17.9892 14.167 18.166ZM18.8337 10.166H16.167C15.9902 10.166 15.8206 10.2363 15.6956 10.3613C15.5706 10.4863 15.5003 10.6559 15.5003 10.8327V24.166C15.5003 24.3428 15.5706 24.5124 15.6956 24.6374C15.8206 24.7624 15.9902 24.8327 16.167 24.8327H18.8337C19.0105 24.8327 19.18 24.7624 19.3051 24.6374C19.4301 24.5124 19.5003 24.3428 19.5003 24.166V10.8327C19.5003 10.6559 19.4301 10.4863 19.3051 10.3613C19.18 10.2363 19.0105 10.166 18.8337 10.166ZM24.167 13.4993H21.5003C21.3235 13.4993 21.1539 13.5696 21.0289 13.6946C20.9039 13.8196 20.8337 13.9892 20.8337 14.166V24.166C20.8337 24.3428 20.9039 24.5124 21.0289 24.6374C21.1539 24.7624 21.3235 24.8327 21.5003 24.8327H24.167C24.3438 24.8327 24.5134 24.7624 24.6384 24.6374C24.7634 24.5124 24.8337 24.3428 24.8337 24.166V14.166C24.8337 13.9892 24.7634 13.8196 24.6384 13.6946C24.5134 13.5696 24.3438 13.4993 24.167 13.4993Z" fill="white"/>
</svg>
