<svg width="35" height="35" viewBox="0 0 35 35" fill="none" xmlns="http://www.w3.org/2000/svg">
<rect width="35" height="35" rx="17.5" fill="#42B38E"/>
<path d="M12.2341 15.7639C10.7447 15.1681 10 14.8702 10 14.5C10 14.1299 10.7447 13.832 12.2341 13.2362L14.3405 12.3937C15.8299 11.7979 16.5746 11.5 17.5001 11.5C18.4255 11.5 19.1702 11.7979 20.6596 12.3937L22.766 13.2362C24.2555 13.832 25.0002 14.1299 25.0002 14.5C25.0002 14.8702 24.2555 15.1681 22.766 15.7639L20.6596 16.6064C19.1702 17.2022 18.4255 17.5001 17.5001 17.5001C16.5746 17.5001 15.8299 17.2022 14.3405 16.6064L12.2341 15.7639Z" fill="url(#paint0_linear_401_10826)"/>
<path fill-rule="evenodd" clip-rule="evenodd" d="M10 14.5C10 14.8702 10.7447 15.1681 12.2341 15.7639L14.3405 16.6064C15.8299 17.2022 16.5746 17.5001 17.5001 17.5001C18.4255 17.5001 19.1702 17.2022 20.6596 16.6064L22.766 15.7639C24.2555 15.1681 25.0002 14.8702 25.0002 14.5C25.0002 14.1299 24.2555 13.832 22.766 13.2362L20.6596 12.3937C19.1702 11.7979 18.4255 11.5 17.5001 11.5C16.5746 11.5 15.8299 11.7979 14.3405 12.3937L12.2341 13.2362C10.7447 13.832 10 14.1299 10 14.5Z" fill="white"/>
<path d="M22.766 18.764L20.6596 19.6066C19.1702 20.2023 18.4255 20.5002 17.5001 20.5002C16.5746 20.5002 15.8299 20.2023 14.3405 19.6066L12.2341 18.764C10.7447 18.1682 10 17.8703 10 17.5002C10 17.1665 10.6051 16.8916 11.8153 16.4043L14.1711 17.3466C15.5576 17.9015 16.4291 18.2502 17.5001 18.2502C18.5711 18.2502 19.4425 17.9015 20.8291 17.3466L23.1848 16.4043C24.3951 16.8916 25.0002 17.1665 25.0002 17.5002C25.0002 17.8703 24.2555 18.1682 22.766 18.764Z" fill="white"/>
<path d="M22.766 21.764L20.6596 22.6066C19.1702 23.2023 18.4255 23.5002 17.5001 23.5002C16.5746 23.5002 15.8299 23.2023 14.3405 22.6066L12.2341 21.764C10.7447 21.1682 10 20.8704 10 20.5002C10 20.1665 10.6051 19.8916 11.8153 19.4043L14.1711 20.3466C15.5576 20.9015 16.4291 21.2502 17.5001 21.2502C18.5711 21.2502 19.4425 20.9015 20.8291 20.3466L23.1848 19.4043C24.3951 19.8916 25.0002 20.1665 25.0002 20.5002C25.0002 20.8704 24.2555 21.1682 22.766 21.764Z" fill="white"/>
<defs>
<linearGradient id="paint0_linear_401_10826" x1="17.5001" y1="11.5" x2="17.5001" y2="23.5001" gradientUnits="userSpaceOnUse">
<stop stop-color="#9999FF"/>
<stop offset="1" stop-color="#2B2BFF"/>
</linearGradient>
</defs>
</svg>
