<svg width="35" height="35" viewBox="0 0 35 35" fill="none" xmlns="http://www.w3.org/2000/svg">
<rect width="35" height="35" rx="17.5" fill="#42B38E"/>
<path d="M23.5 13.5H13C12.7251 13.5 12.5 13.2749 12.5 13C12.5 12.7251 12.7251 12.5 13 12.5H23C23 11.675 22.325 11 21.5 11H12.5C11.1201 11 10 12.1201 10 13.5V22.5C10 23.325 10.675 24 11.5 24H23.5C24.325 24 25 23.325 25 22.5V15C25 14.175 24.325 13.5 23.5 13.5ZM22 19.75C21.4485 19.75 21 19.3015 21 18.75C21 18.1985 21.4485 17.75 22 17.75C22.5515 17.75 23 18.1985 23 18.75C23 19.3015 22.5515 19.75 22 19.75Z" fill="white"/>
</svg>
