<svg width="109" height="32" viewBox="0 0 109 32" fill="none" xmlns="http://www.w3.org/2000/svg">
<g clip-path="url(#clip0_1356_30897)">
<path d="M105.276 0H3.72417C1.66737 0 0 1.69334 0 3.78219V28.2178C0 30.3067 1.66737 32 3.72417 32H105.276C107.333 32 109 30.3067 109 28.2178V3.78219C109 1.69334 107.333 0 105.276 0Z" fill="black"/>
<path d="M38.2894 10.0991L37.8336 11.5879H36.8418L38.5298 6.33203H39.757L41.4701 11.5879H40.4382L39.9624 10.0991H38.2894ZM39.7971 9.37465L39.3813 8.08066C39.2812 7.76091 39.196 7.4012 39.1159 7.09643H39.1008C39.0207 7.4012 38.9456 7.76591 38.8504 8.08066L38.4447 9.37465H39.7971Z" fill="white"/>
<path d="M42.9079 7.79102L43.5241 9.71951C43.6342 10.0542 43.7094 10.359 43.7845 10.6688H43.8096C43.8797 10.359 43.9648 10.0592 44.07 9.71951L44.6811 7.79102H45.6879L44.2353 11.588H43.2886L41.8711 7.79102H42.913H42.9079Z" fill="white"/>
<path d="M49.5187 10.6786C49.5187 11.0234 49.5338 11.3581 49.5788 11.5929H48.7123L48.6422 11.1732H48.6171C48.3917 11.468 47.991 11.6778 47.4901 11.6778C46.7237 11.6778 46.293 11.1233 46.293 10.5487C46.293 9.59946 47.1445 9.10485 48.552 9.11484V9.05489C48.552 8.80508 48.4518 8.39041 47.7756 8.39041C47.3999 8.39041 47.0092 8.50532 46.7538 8.67019L46.5685 8.04568C46.849 7.87581 47.3449 7.71094 47.9459 7.71094C49.1681 7.71094 49.5187 8.48533 49.5187 9.31968V10.6836V10.6786ZM48.5821 9.73436C47.9008 9.72436 47.2547 9.86925 47.2547 10.4438C47.2547 10.8185 47.4951 10.9884 47.8007 10.9884C48.1914 10.9884 48.4669 10.7386 48.557 10.4638C48.5821 10.3938 48.5821 10.3239 48.5821 10.254V9.72936V9.73436Z" fill="white"/>
<path d="M51.3571 7.24622C51.0365 7.24622 50.8262 7.0114 50.8262 6.73162C50.8262 6.43685 51.0466 6.20703 51.3671 6.20703C51.6877 6.20703 51.8981 6.43186 51.9081 6.73162C51.9081 7.0114 51.6977 7.24622 51.3671 7.24622H51.3571ZM50.8813 11.5878V7.79079H51.843V11.5878H50.8813Z" fill="white"/>
<path d="M53.2266 6.04688H54.1883V11.5925H53.2266V6.04688Z" fill="white"/>
<path d="M58.5363 10.6786C58.5363 11.0234 58.5513 11.3581 58.5964 11.5929H57.7299L57.6598 11.1732H57.6347C57.4093 11.468 57.0086 11.6778 56.5077 11.6778C55.7413 11.6778 55.3105 11.1233 55.3105 10.5487C55.3105 9.59946 56.1621 9.10485 57.5696 9.11484V9.05489C57.5696 8.80508 57.4694 8.39041 56.7982 8.39041C56.4225 8.39041 56.0318 8.50532 55.7764 8.67019L55.591 8.04568C55.8715 7.87581 56.3674 7.71094 56.9685 7.71094C58.1857 7.71094 58.5413 8.48533 58.5413 9.31968V10.6836L58.5363 10.6786ZM57.5996 9.73436C56.9184 9.72436 56.2723 9.86925 56.2723 10.4438C56.2723 10.8185 56.5127 10.9884 56.8182 10.9884C57.2089 10.9884 57.4844 10.7386 57.5746 10.4638C57.5996 10.3938 57.5996 10.3239 57.5996 10.254V9.72936V9.73436Z" fill="white"/>
<path d="M59.8922 6.04688H60.854V8.3151H60.869C61.1044 7.95039 61.5201 7.70558 62.0912 7.70558C63.0228 7.70558 63.684 8.47997 63.679 9.63407C63.679 10.998 62.8125 11.6775 61.9509 11.6775C61.46 11.6775 61.0192 11.4876 60.7488 11.023H60.7337L60.6887 11.5925H59.8672C59.8822 11.3327 59.8972 10.9131 59.8972 10.5334V6.04688H59.8922ZM60.854 10.0238C60.854 10.1037 60.864 10.1786 60.879 10.2486C60.9792 10.6383 61.3148 10.9181 61.7305 10.9181C62.3316 10.9181 62.7023 10.4434 62.7023 9.66904C62.7023 8.99957 62.3817 8.45499 61.7405 8.45499C61.3498 8.45499 60.9892 8.73477 60.889 9.15445C60.874 9.22439 60.859 9.30933 60.859 9.40425V10.0188L60.854 10.0238Z" fill="white"/>
<path d="M64.8125 6.04688H65.7742V11.5925H64.8125V6.04688Z" fill="white"/>
<path d="M67.8416 9.95832C67.8666 10.6428 68.4026 10.9425 69.0137 10.9425C69.4595 10.9425 69.77 10.8726 70.0706 10.7727L70.2108 11.4272C69.8802 11.5671 69.4294 11.667 68.8834 11.667C67.6462 11.667 66.9199 10.9126 66.9199 9.74848C66.9199 8.69431 67.5611 7.70508 68.7833 7.70508C70.0054 7.70508 70.4262 8.71929 70.4262 9.55363C70.4262 9.73349 70.4112 9.87338 70.3961 9.95832H67.8466H67.8416ZM69.5146 9.28884C69.5246 8.93911 69.3643 8.35957 68.7232 8.35957C68.1271 8.35957 67.8766 8.89915 67.8416 9.28884H69.5146Z" fill="white"/>
<path d="M75.1704 11.677C74.0985 11.677 73.262 10.9425 73.262 9.71851C73.262 8.49446 74.0834 7.70508 75.2305 7.70508C76.3775 7.70508 77.1239 8.49946 77.1239 9.65356C77.1239 11.0475 76.1371 11.672 75.1754 11.672H75.1654L75.1704 11.677ZM75.2004 10.9825C75.7464 10.9825 76.1321 10.4529 76.1321 9.67854C76.1321 9.084 75.8666 8.39954 75.2104 8.39954C74.5543 8.39954 74.2537 9.06402 74.2537 9.69352C74.2537 10.428 74.6194 10.9825 75.1904 10.9825H75.2004Z" fill="white"/>
<path d="M78.2566 8.92499C78.2566 8.49033 78.2416 8.12062 78.2266 7.79587H79.0631L79.1081 8.36543H79.1332C79.3035 8.07066 79.7192 7.71094 80.3554 7.71094C80.9915 7.71094 81.7078 8.1406 81.7078 9.33967V11.5929H80.7461V9.44958C80.7461 8.905 80.5407 8.49033 80.0198 8.49033C79.6391 8.49033 79.3736 8.76511 79.2684 9.04989C79.2384 9.12983 79.2233 9.24474 79.2233 9.35465V11.5929H78.2616V8.92499H78.2566Z" fill="white"/>
<path d="M86.1341 6.81554V7.78978H87.0508V8.50922H86.1341V10.1779C86.1341 10.6475 86.2594 10.8774 86.625 10.8774C86.7953 10.8774 86.8905 10.8674 87.0007 10.8374L87.0157 11.5618C86.8755 11.6168 86.615 11.6618 86.3195 11.6618C85.9588 11.6618 85.6733 11.5468 85.493 11.352C85.2826 11.1322 85.1875 10.7824 85.1875 10.2828V8.50422H84.6465V7.78479H85.1875V7.07534L86.1341 6.81055V6.81554Z" fill="white"/>
<path d="M88.1185 6.04688H89.0803V8.31011H89.0953C89.2105 8.13025 89.3758 7.98036 89.5711 7.88044C89.7665 7.77053 89.9919 7.71057 90.2373 7.71057C90.8835 7.71057 91.5647 8.14024 91.5647 9.35429V11.5925H90.603V9.45421C90.603 8.90964 90.3976 8.48497 89.8667 8.48497C89.491 8.48497 89.2255 8.73477 89.1153 9.02455C89.0853 9.10948 89.0752 9.2144 89.0752 9.31432V11.5925H88.1135V6.04688H88.1185Z" fill="white"/>
<path d="M93.6131 9.95832C93.6381 10.6428 94.1741 10.9425 94.7852 10.9425C95.231 10.9425 95.5415 10.8726 95.842 10.7727L95.9823 11.4272C95.6517 11.5671 95.2009 11.667 94.6549 11.667C93.4177 11.667 92.6914 10.9126 92.6914 9.74848C92.6914 8.69431 93.3326 7.70508 94.5547 7.70508C95.7769 7.70508 96.1977 8.71929 96.1977 9.55363C96.1977 9.73349 96.1827 9.87338 96.1676 9.95832H93.6181H93.6131ZM95.2861 9.28884C95.2961 8.93911 95.1358 8.35957 94.4946 8.35957C93.8986 8.35957 93.6481 8.89915 93.6131 9.28884H95.2861Z" fill="white"/>
<path d="M24.0961 15.2187C24.0734 12.8597 26.0342 11.7142 26.1252 11.6599C25.0151 10.048 23.2909 9.82617 22.6858 9.80805C21.2391 9.65864 19.8379 10.6683 19.1009 10.6683C18.3638 10.6683 17.2128 9.82164 15.9936 9.84428C14.4195 9.87144 12.95 10.777 12.1402 12.1806C10.4752 15.0511 11.7171 19.2664 13.314 21.5892C14.1147 22.7256 15.0473 23.9934 16.2666 23.9481C17.4585 23.8983 17.9044 23.192 19.3465 23.192C20.7887 23.192 21.1936 23.9481 22.4401 23.9209C23.7231 23.8983 24.5283 22.78 25.2972 21.6344C26.2207 20.3305 26.5892 19.0491 26.6074 18.9857C26.5756 18.9767 24.1189 18.044 24.0916 15.2141" fill="white"/>
<path d="M21.7401 8.28579C22.3815 7.48438 22.8228 6.39773 22.7 5.29297C21.7719 5.33372 20.6073 5.93138 19.9385 6.71467C19.3471 7.40288 18.8148 8.53481 18.9513 9.5943C19.9976 9.67127 21.0668 9.06908 21.7401 8.28126" fill="white"/>
<path d="M41.3566 23.766H39.6915L38.7816 20.9136H35.6152L34.7463 23.766H33.1267L36.2658 14.0586H38.2039L41.3566 23.766ZM38.5087 19.7182L37.6852 17.1827C37.5988 16.9246 37.435 16.3134 37.1939 15.3535H37.1666C37.0711 15.7655 36.9164 16.3768 36.7026 17.1827L35.8928 19.7182H38.5132H38.5087Z" fill="white"/>
<path d="M49.4318 20.1785C49.4318 21.3693 49.1088 22.3111 48.4628 22.9993C47.885 23.6151 47.1662 23.9184 46.3064 23.9184C45.3783 23.9184 44.7141 23.5879 44.3092 22.9269H44.2819V26.6124H42.7169V19.0647C42.7169 18.3177 42.6987 17.5479 42.6577 16.7601H44.0316L44.1181 17.8694H44.1499C44.6686 17.0318 45.4602 16.6152 46.5202 16.6152C47.3482 16.6152 48.0442 16.9412 48.5947 17.5932C49.1497 18.2452 49.4273 19.1055 49.4273 20.1695M47.835 20.2283C47.835 19.5492 47.6803 18.9832 47.3709 18.544C47.0343 18.0822 46.5793 17.8513 46.0106 17.8513C45.6239 17.8513 45.2736 17.9781 44.9597 18.2316C44.6458 18.4897 44.4411 18.8202 44.3456 19.2323C44.2955 19.4269 44.2728 19.5809 44.2728 19.7077V20.8758C44.2728 21.3829 44.4274 21.813 44.7413 22.1617C45.0553 22.5148 45.4647 22.6869 45.9651 22.6869C46.552 22.6869 47.0115 22.465 47.3391 22.0123C47.6666 21.5595 47.8304 20.9664 47.8304 20.2238" fill="white"/>
<path d="M57.5212 20.1785C57.5212 21.3693 57.1982 22.3111 56.5522 22.9993C55.9744 23.6151 55.2556 23.9184 54.3958 23.9184C53.4723 23.9184 52.8035 23.5879 52.3986 22.9269H52.3713V26.6124H50.8109V19.0647C50.8109 18.3177 50.7927 17.5479 50.7517 16.7601H52.1256L52.2121 17.8694H52.2439C52.7626 17.0318 53.5542 16.6152 54.6142 16.6152C55.4422 16.6152 56.1337 16.9412 56.6887 17.5932C57.2437 18.2452 57.5212 19.1055 57.5212 20.1695M55.929 20.2283C55.929 19.5492 55.7743 18.9832 55.4649 18.544C55.1283 18.0822 54.6733 17.8513 54.1046 17.8513C53.7179 17.8513 53.3676 17.9781 53.0537 18.2316C52.7398 18.4897 52.5351 18.8202 52.4395 19.2323C52.3895 19.4269 52.3668 19.5809 52.3668 19.7077V20.8758C52.3668 21.3829 52.5214 21.813 52.8353 22.1617C53.1493 22.5148 53.5542 22.6869 54.0591 22.6869C54.646 22.6869 55.1055 22.465 55.4331 22.0123C55.7606 21.5595 55.9244 20.9664 55.9244 20.2238" fill="white"/>
<path d="M66.565 21.044C66.565 21.868 66.2784 22.5426 65.6961 23.0588C65.0592 23.6248 64.1766 23.91 63.0392 23.91C61.9883 23.91 61.1467 23.7108 60.5098 23.3078L60.8737 22.0129C61.5607 22.4249 62.3113 22.6332 63.1348 22.6332C63.7217 22.6332 64.1811 22.5019 64.5087 22.2393C64.8363 21.9721 65 21.619 65 21.1798C65 20.7859 64.8636 20.4554 64.5951 20.1837C64.3267 19.912 63.8763 19.663 63.2485 19.4321C61.5425 18.7982 60.6872 17.87 60.6872 16.6476C60.6872 15.8507 60.9875 15.1942 61.5834 14.6871C62.1794 14.1754 62.9756 13.9219 63.9719 13.9219C64.859 13.9219 65.596 14.0758 66.1829 14.3837L65.7916 15.6515C65.2412 15.3526 64.6179 15.2032 63.9264 15.2032C63.3759 15.2032 62.9483 15.339 62.6389 15.6062C62.3796 15.8462 62.2476 16.1405 62.2476 16.4846C62.2476 16.8694 62.3978 17.1864 62.6935 17.4354C62.9528 17.6663 63.4259 17.9153 64.1129 18.187C64.95 18.522 65.5687 18.9159 65.9645 19.3687C66.3603 19.8215 66.5559 20.3829 66.5559 21.053" fill="white"/>
<path d="M71.7287 17.9328H70.009V21.3331C70.009 22.1979 70.3138 22.628 70.9234 22.628C71.2009 22.628 71.433 22.6054 71.6149 22.5556L71.6559 23.7373C71.3511 23.8505 70.9416 23.9094 70.4412 23.9094C69.8225 23.9094 69.3402 23.7237 68.9945 23.3479C68.6487 22.9721 68.4713 22.3428 68.4713 21.4599V17.9328H67.4431V16.7647H68.4713V15.4833L70.0044 15.0215V16.7647H71.7241V17.9328H71.7287Z" fill="white"/>
<path d="M79.4983 20.2109C79.4983 21.2885 79.1889 22.1714 78.5747 22.8597C77.9287 23.5705 77.0689 23.9237 75.9998 23.9237C74.9306 23.9237 74.1436 23.5841 73.534 22.9004C72.9198 22.2213 72.615 21.361 72.615 20.3241C72.615 19.2375 72.9289 18.3501 73.5613 17.6618C74.1936 16.9691 75.0444 16.625 76.1135 16.625C77.1826 16.625 77.9742 16.9646 78.602 17.6483C79.2026 18.3138 79.4983 19.165 79.4983 20.2109ZM77.8787 20.2608C77.8787 19.6178 77.7376 19.0609 77.4601 18.5991C77.1326 18.0422 76.664 17.7615 76.0589 17.7615C75.4538 17.7615 74.9534 18.0422 74.6258 18.5991C74.3438 19.0609 74.2073 19.6223 74.2073 20.2879C74.2073 20.9535 74.3438 21.4878 74.6258 21.9496C74.9625 22.5065 75.4356 22.7872 76.0453 22.7872C76.6549 22.7872 77.1098 22.502 77.4465 21.936C77.7376 21.4651 77.8787 20.9082 77.8787 20.2608Z" fill="white"/>
<path d="M84.5766 18.1373C84.4219 18.1101 84.2581 18.0965 84.0852 18.0965C83.5348 18.0965 83.1117 18.3048 82.8114 18.7168C82.5521 19.0835 82.4202 19.5408 82.4202 20.0978V23.7697H80.8597L80.8733 18.9749C80.8733 18.169 80.8552 17.4355 80.8142 16.7699H82.1745L82.2336 18.1101H82.2746C82.4383 17.6483 82.7022 17.277 83.0571 17.0008C83.4028 16.7518 83.7804 16.625 84.1853 16.625C84.3309 16.625 84.4583 16.6341 84.5766 16.6522V18.1373Z" fill="white"/>
<path d="M91.5645 19.9347C91.5645 20.2154 91.5463 20.4463 91.5099 20.641H86.824C86.8422 21.3337 87.0696 21.8589 87.5018 22.2257C87.8976 22.5517 88.4072 22.7147 89.035 22.7147C89.7265 22.7147 90.3589 22.606 90.9321 22.3842L91.1778 23.4663C90.5136 23.7561 89.7265 23.9009 88.8166 23.9009C87.7293 23.9009 86.8695 23.5795 86.2507 22.9411C85.632 22.3027 85.3181 21.4469 85.3181 20.3693C85.3181 19.2917 85.6093 18.436 86.1871 17.7342C86.7921 16.9871 87.6156 16.6113 88.6437 16.6113C89.6719 16.6113 90.4271 16.9871 90.9457 17.7342C91.3597 18.3319 91.5645 19.0653 91.5645 19.9392M90.0768 19.5362C90.0859 19.0744 89.9858 18.676 89.772 18.3409C89.5036 17.9108 89.085 17.6935 88.5255 17.6935C88.0159 17.6935 87.6019 17.9063 87.2835 18.3273C87.0242 18.6624 86.8695 19.0653 86.824 19.5362H90.0768Z" fill="white"/>
</g>
<defs>
<clipPath id="clip0_1356_30897">
<rect width="109" height="32" rx="8" fill="white"/>
</clipPath>
</defs>
</svg>
