<svg width="110" height="32" viewBox="0 0 110 32" fill="none" xmlns="http://www.w3.org/2000/svg">
<g clip-path="url(#clip0_1356_30930)">
<path d="M110 0H0V32H110V0Z" fill="black"/>
<mask id="mask0_1356_30930" style="mask-type:luminance" maskUnits="userSpaceOnUse" x="0" y="0" width="111" height="33">
<path d="M110.066 0H0.392578V32.0023H110.066V0Z" fill="white"/>
</mask>
<g mask="url(#mask0_1356_30930)">
<path d="M41.102 21.6048H37.2436L36.3069 24.1094H34.6113L38.3842 14.752H39.9854L43.8439 24.1094H42.0693L41.102 21.6048ZM37.7349 20.3247H40.6084L39.5797 17.645C39.4392 17.2759 39.2989 16.8663 39.1629 16.4182C39.0378 16.8151 38.9019 17.2183 38.7571 17.6322L37.7349 20.3247Z" fill="white"/>
</g>
<mask id="mask1_1356_30930" style="mask-type:luminance" maskUnits="userSpaceOnUse" x="0" y="0" width="111" height="33">
<path d="M110.066 0H0.392578V32.0023H110.066V0Z" fill="white"/>
</mask>
<g mask="url(#mask1_1356_30930)">
<path d="M44.5273 18.845C44.5273 18.3287 44.5097 17.7598 44.4746 17.1382H46.01C46.0678 17.4308 46.1073 17.7265 46.1285 18.0236C46.3972 17.7105 46.7323 17.4576 47.1109 17.2823C47.4896 17.1069 47.9028 17.0134 48.322 17.0081C48.8137 17.0005 49.2964 17.1357 49.7087 17.3965C50.1209 17.6572 50.4438 18.0315 50.6362 18.4717C50.906 19.0767 51.0342 19.7326 51.0113 20.3918C51.0279 21.1106 50.8781 21.8237 50.5726 22.4783C50.3171 23.0217 49.8999 23.478 49.3749 23.7883C48.8348 24.0919 48.2197 24.2461 47.5959 24.2342C47.1052 24.2339 46.618 24.1531 46.1548 23.9953V26.8819L44.5141 27.0184L44.5273 18.845ZM48.8397 22.4015C49.1731 21.9749 49.342 21.3348 49.342 20.4814C49.342 19.7034 49.2031 19.1344 48.9252 18.7746C48.7997 18.6073 48.6344 18.4722 48.4434 18.3809C48.2523 18.2894 48.0413 18.2444 47.8285 18.2498C47.522 18.2458 47.2196 18.3193 46.951 18.4631C46.6659 18.6203 46.4063 18.8181 46.1811 19.0499V22.7834C46.3629 22.8668 46.5544 22.9284 46.7515 22.9669C46.9634 23.0115 47.1796 23.0344 47.3964 23.0352C47.6717 23.0512 47.947 23.0019 48.1984 22.8916C48.4498 22.7812 48.6699 22.613 48.8397 22.4015Z" fill="white"/>
</g>
<mask id="mask2_1356_30930" style="mask-type:luminance" maskUnits="userSpaceOnUse" x="0" y="0" width="111" height="33">
<path d="M110.066 0H0.392578V32.0023H110.066V0Z" fill="white"/>
</mask>
<g mask="url(#mask2_1356_30930)">
<path d="M52.0097 18.845C52.0097 18.3287 51.9922 17.7598 51.957 17.1382H53.4925C53.552 17.4305 53.5923 17.7263 53.6132 18.0236C54.2522 17.3466 54.9834 17.0081 55.8067 17.0081C56.2983 17.0005 56.7811 17.1357 57.1934 17.3965C57.6055 17.6572 57.9285 18.0315 58.1209 18.4717C58.3907 19.0767 58.5188 19.7326 58.4959 20.3918C58.516 21.1097 58.3699 21.8229 58.0682 22.4783C57.8121 23.022 57.3941 23.4783 56.8684 23.7883C56.3283 24.0921 55.7131 24.2464 55.0894 24.2342C54.5986 24.2339 54.1114 24.1531 53.6482 23.9953V26.8819L52.0075 27.0184L52.0097 18.845ZM56.3287 22.4015C56.6621 21.9649 56.8289 21.3248 56.8289 20.4814C56.8289 19.7034 56.6907 19.1344 56.4143 18.7746C56.2888 18.6073 56.1234 18.4722 55.9324 18.3809C55.7414 18.2894 55.5304 18.2444 55.3176 18.2498C55.0111 18.2462 54.7088 18.3196 54.4401 18.4631C54.1549 18.6203 53.8953 18.8181 53.6702 19.0499V22.7834C53.8522 22.8661 54.0436 22.9277 54.2405 22.9669C54.4525 23.0115 54.6686 23.0344 54.8854 23.0352C55.1607 23.0509 55.4358 23.0014 55.6872 22.891C55.9386 22.7807 56.1587 22.6128 56.3287 22.4015Z" fill="white"/>
</g>
<mask id="mask3_1356_30930" style="mask-type:luminance" maskUnits="userSpaceOnUse" x="0" y="0" width="111" height="33">
<path d="M110.066 0H0.392578V32.0023H110.066V0Z" fill="white"/>
</mask>
<g mask="url(#mask3_1356_30930)">
<path d="M61.5116 23.667C60.8106 23.2932 60.2413 22.7231 59.8774 22.0307C59.4797 21.2483 59.284 20.3835 59.3071 19.5111C59.2786 18.5776 59.5057 17.6536 59.9651 16.8335C60.38 16.1219 61.003 15.5464 61.755 15.18C62.5455 14.8045 63.4156 14.6152 64.2951 14.6275C64.8286 14.6252 65.3603 14.6854 65.8789 14.8067C66.3639 14.9178 66.8347 15.0809 67.2827 15.2932L66.8572 16.5199C66.0813 16.1392 65.2276 15.9322 64.3588 15.914C63.7455 15.904 63.1403 16.0512 62.6039 16.3407C62.0951 16.6248 61.6861 17.0516 61.4305 17.5653C61.1364 18.1746 60.9937 18.8425 61.0137 19.5153C61.0027 20.1214 61.1115 20.724 61.3339 21.2904C61.5359 21.7916 61.8911 22.2205 62.3517 22.5193C62.8765 22.8386 63.4881 22.9962 64.1065 22.9716C64.427 22.9708 64.7469 22.9444 65.0629 22.8926C65.3687 22.8453 65.6692 22.7696 65.96 22.6665V20.7634H63.7358V19.5239H67.5547V23.4686C67.0007 23.7198 66.4204 23.9122 65.8241 24.0426C65.2327 24.1751 64.6279 24.2424 64.021 24.2431C63.1476 24.2635 62.2835 24.0652 61.5116 23.667Z" fill="white"/>
</g>
<mask id="mask4_1356_30930" style="mask-type:luminance" maskUnits="userSpaceOnUse" x="0" y="0" width="111" height="33">
<path d="M110.066 0H0.392578V32.0023H110.066V0Z" fill="white"/>
</mask>
<g mask="url(#mask4_1356_30930)">
<path d="M73.3824 24.1073C73.3204 23.8027 73.2822 23.4939 73.2683 23.1836C72.9943 23.4937 72.6595 23.7475 72.2835 23.9303C71.8589 24.1394 71.3883 24.2449 70.9125 24.2375C70.5232 24.2423 70.1377 24.1613 69.7851 24.0007C69.4495 23.8476 69.1691 23.6002 68.98 23.2902C68.7704 22.939 68.6664 22.5376 68.6795 22.1318C68.6672 21.8239 68.7288 21.5175 68.8593 21.2367C68.99 20.9561 69.186 20.7088 69.4318 20.5146C69.932 20.1107 70.7662 19.9094 71.9347 19.9108C72.3699 19.9106 72.8046 19.9406 73.2354 20.0004V19.8638C73.2354 19.2494 73.1009 18.8156 72.8319 18.5625C72.5102 18.2933 72.0927 18.1576 71.6692 18.1848C71.29 18.1893 70.9128 18.2395 70.5462 18.3341C70.183 18.4193 69.829 18.5379 69.4889 18.6883L69.2301 17.5277C69.602 17.3733 69.9884 17.254 70.3839 17.1714C70.8812 17.062 71.3896 17.0076 71.8996 17.0092C72.4398 16.9949 72.9774 17.0886 73.4789 17.2845C73.92 17.4742 74.2793 17.8077 74.4945 18.2275C74.7638 18.7895 74.8894 19.4065 74.8608 20.026V22.7996C74.8608 23.084 74.8784 23.5207 74.9135 24.1095L73.3824 24.1073ZM72.3997 22.8273C72.7159 22.6844 72.9999 22.4821 73.2354 22.232V20.9519C72.8713 20.9101 72.5053 20.8866 72.1387 20.8815C71.4616 20.8815 70.9929 20.9882 70.7327 21.2015C70.6057 21.3059 70.5047 21.4369 70.4374 21.5848C70.3702 21.7326 70.3384 21.8934 70.3444 22.055C70.3325 22.1946 70.3516 22.335 70.4004 22.4667C70.4493 22.5986 70.5266 22.7186 70.6274 22.8188C70.8412 22.9941 71.1158 23.0834 71.3951 23.0684C71.7444 23.0632 72.088 22.9808 72.3997 22.8273Z" fill="white"/>
</g>
<mask id="mask5_1356_30930" style="mask-type:luminance" maskUnits="userSpaceOnUse" x="0" y="0" width="111" height="33">
<path d="M110.066 0H0.392578V32.0023H110.066V0Z" fill="white"/>
</mask>
<g mask="url(#mask5_1356_30930)">
<path d="M76.1289 22.4353V14.2003L77.7609 14.0723V22.152C77.7377 22.3763 77.7926 22.6017 77.9167 22.7921C77.9794 22.8576 78.0566 22.9084 78.1425 22.9406C78.2284 22.9727 78.3207 22.9855 78.4124 22.9777C78.5612 22.9715 78.7086 22.9471 78.8511 22.9051L79.0442 24.0487C78.8605 24.1162 78.6701 24.1647 78.476 24.1938C78.2666 24.2291 78.0546 24.2476 77.8421 24.2492C76.7 24.2421 76.1289 23.6371 76.1289 22.4353Z" fill="white"/>
</g>
<mask id="mask6_1356_30930" style="mask-type:luminance" maskUnits="userSpaceOnUse" x="0" y="0" width="111" height="33">
<path d="M110.066 0H0.392578V32.0023H110.066V0Z" fill="white"/>
</mask>
<g mask="url(#mask6_1356_30930)">
<path d="M80.2109 22.4353V14.2003L81.8451 14.0723V22.152C81.8219 22.3763 81.8767 22.6017 82.0009 22.7921C82.0635 22.8576 82.1408 22.9084 82.2263 22.9406C82.3127 22.9727 82.4048 22.9855 82.4969 22.9777C82.645 22.9715 82.7931 22.9471 82.9354 22.9051L83.1262 24.0487C82.9436 24.1162 82.7536 24.1648 82.5603 24.1938C82.3497 24.2292 82.1375 24.2478 81.9244 24.2492C80.7834 24.2421 80.2124 23.6371 80.2109 22.4353Z" fill="white"/>
</g>
<mask id="mask7_1356_30930" style="mask-type:luminance" maskUnits="userSpaceOnUse" x="0" y="0" width="111" height="33">
<path d="M110.066 0H0.392578V32.0023H110.066V0Z" fill="white"/>
</mask>
<g mask="url(#mask7_1356_30930)">
<path d="M89.8351 20.8275H85.1473C85.2222 22.2882 85.937 23.0186 87.2926 23.0186C87.6405 23.0168 87.9876 22.9768 88.3257 22.8991C88.672 22.8208 89.0101 22.7138 89.3375 22.579L89.6969 23.6714C88.8522 24.0585 87.9276 24.2527 86.9948 24.2389C86.326 24.2577 85.663 24.1108 85.0683 23.8123C84.5534 23.5415 84.1405 23.1187 83.8888 22.6046C83.6099 22.0092 83.475 21.3598 83.4939 20.7059C83.475 20.0206 83.619 19.3405 83.9126 18.7175C84.1627 18.1887 84.5682 17.7435 85.0774 17.4374C85.5989 17.1384 86.1961 16.9863 86.8015 16.9978C87.402 16.9772 87.995 17.1391 88.4968 17.4608C88.95 17.7665 89.3005 18.1945 89.5061 18.6919C89.7323 19.2337 89.8442 19.814 89.8351 20.3987V20.8275ZM88.2361 19.814C88.2393 19.3611 88.0847 18.9205 87.7976 18.5639C87.6685 18.4236 87.5097 18.3127 87.3321 18.2389C87.1544 18.1652 86.9619 18.1304 86.7686 18.1371C86.5745 18.1333 86.3812 18.1692 86.2018 18.2427C86.0225 18.3163 85.8613 18.4257 85.7289 18.5639C85.4196 18.9143 85.2304 19.3499 85.1868 19.8098L88.2361 19.814Z" fill="white"/>
</g>
<mask id="mask8_1356_30930" style="mask-type:luminance" maskUnits="userSpaceOnUse" x="0" y="0" width="111" height="33">
<path d="M110.066 0H0.392578V32.0023H110.066V0Z" fill="white"/>
</mask>
<g mask="url(#mask8_1356_30930)">
<path d="M91.0775 18.8901C91.0775 18.5081 91.0577 17.9236 91.0232 17.1406H92.5581C92.5844 17.3348 92.6091 17.5673 92.6354 17.834C92.6618 18.1007 92.6749 18.3225 92.6831 18.4911C92.8485 18.2191 93.036 17.9609 93.245 17.7188C93.4259 17.5119 93.6447 17.339 93.8899 17.2088C94.1473 17.0735 94.4369 17.0051 94.7297 17.0104C94.9518 17.0051 95.1739 17.0318 95.3878 17.0894L95.1821 18.4719C94.9246 18.3996 94.6548 18.3812 94.3908 18.418C94.1259 18.4548 93.8718 18.5459 93.6464 18.6853C93.2836 18.9477 92.9669 19.2663 92.7095 19.6282V24.1085H91.0775V18.8901Z" fill="white"/>
</g>
<mask id="mask9_1356_30930" style="mask-type:luminance" maskUnits="userSpaceOnUse" x="0" y="0" width="111" height="33">
<path d="M110.066 0H0.392578V32.0023H110.066V0Z" fill="white"/>
</mask>
<g mask="url(#mask9_1356_30930)">
<path d="M96.3015 26.9611C96.1008 26.9296 95.9042 26.8832 95.7109 26.8224L96.0095 25.6596C96.1477 25.6958 96.2876 25.7249 96.4282 25.7471C96.5862 25.7744 96.7466 25.7887 96.907 25.7898C97.6374 25.7898 98.1819 25.3354 98.5389 24.4265L98.6459 24.1683L96.0029 17.1406H97.7575L99.0999 21.0683C99.2718 21.5736 99.4109 22.0887 99.517 22.6109C99.642 22.1074 99.7868 21.6039 99.9554 21.1003L101.294 17.1406H102.945L100.313 24.2003C100.114 24.769 99.8444 25.3114 99.5079 25.8154C99.2521 26.196 98.9017 26.5084 98.4904 26.7243C98.0487 26.9338 97.5617 27.0363 97.0715 27.0229C96.8132 27.0239 96.5557 27.0032 96.3015 26.9611Z" fill="white"/>
</g>
<mask id="mask10_1356_30930" style="mask-type:luminance" maskUnits="userSpaceOnUse" x="0" y="0" width="111" height="33">
<path d="M110.066 0H0.392578V32.0023H110.066V0Z" fill="white"/>
</mask>
<g mask="url(#mask10_1356_30930)">
<path d="M34.6113 5.8418H37.5287L37.4476 6.52878H35.4624V7.85792H37.3335V8.49794H35.4624V9.97004H37.5528L37.4805 10.6677H34.6113V5.8418Z" fill="white"/>
</g>
<mask id="mask11_1356_30930" style="mask-type:luminance" maskUnits="userSpaceOnUse" x="0" y="0" width="111" height="33">
<path d="M110.066 0H0.392578V32.0023H110.066V0Z" fill="white"/>
</mask>
<g mask="url(#mask11_1356_30930)">
<path d="M39.5443 8.20572L38.0088 5.8418H38.9828L40.0268 7.57848L41.1236 5.8418H42.069L40.5336 8.17588L42.1941 10.6677H41.207L40.0246 8.76897L38.8204 10.6677H37.875L39.5443 8.20572Z" fill="white"/>
</g>
<mask id="mask12_1356_30930" style="mask-type:luminance" maskUnits="userSpaceOnUse" x="0" y="0" width="111" height="33">
<path d="M110.066 0H0.392578V32.0023H110.066V0Z" fill="white"/>
</mask>
<g mask="url(#mask12_1356_30930)">
<path d="M42.8242 5.8418H44.1623C44.7896 5.8418 45.2707 5.96625 45.6056 6.21516C45.7721 6.34263 45.9047 6.50735 45.9917 6.69531C46.0788 6.88326 46.1179 7.08889 46.1057 7.2947C46.115 7.58867 46.039 7.87925 45.8864 8.13316C45.7374 8.3719 45.5202 8.56319 45.2613 8.6836C44.9735 8.81593 44.6581 8.88161 44.34 8.87561C44.119 8.87257 43.8988 8.85049 43.6819 8.80953V10.6677H42.8242V5.8418ZM44.9738 7.99659C45.0675 7.90918 45.1404 7.80307 45.1878 7.68558C45.2351 7.56808 45.2557 7.44199 45.2481 7.31601C45.2592 7.19528 45.2396 7.07373 45.1911 6.96211C45.1425 6.85048 45.0664 6.75221 44.9695 6.67597C44.7226 6.52973 44.4353 6.46119 44.1469 6.47968H43.6819V8.18644C43.8449 8.21501 44.0099 8.23141 44.1755 8.23549C44.463 8.25653 44.7481 8.1712 44.9738 7.99659Z" fill="white"/>
</g>
<mask id="mask13_1356_30930" style="mask-type:luminance" maskUnits="userSpaceOnUse" x="0" y="0" width="111" height="33">
<path d="M110.066 0H0.392578V32.0023H110.066V0Z" fill="white"/>
</mask>
<g mask="url(#mask13_1356_30930)">
<path d="M46.9531 5.8418H47.8086V9.95521H49.8617L49.7894 10.6677H46.9531V5.8418Z" fill="white"/>
</g>
<mask id="mask14_1356_30930" style="mask-type:luminance" maskUnits="userSpaceOnUse" x="0" y="0" width="111" height="33">
<path d="M110.066 0H0.392578V32.0023H110.066V0Z" fill="white"/>
</mask>
<g mask="url(#mask14_1356_30930)">
<path d="M51.1646 10.4304C50.8051 10.2337 50.5147 9.93637 50.3311 9.57706C50.1315 9.17879 50.033 8.73988 50.0438 8.29697C50.0332 7.83413 50.1386 7.37578 50.3508 6.96135C50.5454 6.58783 50.8511 6.28002 51.2283 6.07809C51.6504 5.86303 52.1229 5.75861 52.5992 5.77513C53.0495 5.76338 53.4951 5.86713 53.8912 6.07595C54.2485 6.27341 54.5366 6.57073 54.7181 6.92938C54.9137 7.32348 55.0107 7.75703 55.0011 8.19459C55.013 8.66254 54.9068 9.12625 54.6918 9.54508C54.4954 9.91727 54.1901 10.2247 53.8144 10.4283C53.3996 10.6429 52.9351 10.7502 52.4654 10.7398C52.0112 10.751 51.5622 10.6442 51.1646 10.4304ZM53.3845 9.83948C53.6263 9.68363 53.8143 9.46057 53.9241 9.19943C54.0471 8.90045 54.1076 8.58051 54.1018 8.25857C54.1073 7.94245 54.0537 7.62799 53.9438 7.3305C53.8454 7.07281 53.6696 6.84982 53.4393 6.69045C53.1722 6.53149 52.8652 6.44737 52.552 6.44737C52.2389 6.44737 51.9318 6.53149 51.6647 6.69045C51.4222 6.85409 51.2334 7.08223 51.1208 7.34757C50.996 7.63423 50.934 7.94304 50.9386 8.25428C50.9334 8.57502 50.9915 8.89368 51.1098 9.19307C51.2149 9.46693 51.407 9.7011 51.6583 9.86151C51.9096 10.0218 52.2069 10.1001 52.507 10.0848C52.8185 10.0923 53.1247 10.0066 53.3845 9.83948Z" fill="white"/>
</g>
<mask id="mask15_1356_30930" style="mask-type:luminance" maskUnits="userSpaceOnUse" x="0" y="0" width="111" height="33">
<path d="M110.066 0H0.392578V32.0023H110.066V0Z" fill="white"/>
</mask>
<g mask="url(#mask15_1356_30930)">
<path d="M55.9551 5.84094H57.5081C57.9631 5.80962 58.4159 5.92592 58.7957 6.17164C58.9413 6.2829 59.0573 6.42673 59.1337 6.59089C59.2101 6.75506 59.2446 6.93473 59.2343 7.11463C59.2395 7.34858 59.1852 7.58014 59.0764 7.78882C58.9812 7.9718 58.8483 8.13372 58.686 8.26461C58.5408 8.37854 58.378 8.46935 58.2034 8.53343L59.7389 10.6669H58.7408L57.4489 8.74673H56.8193V10.6669H55.9551V5.84094ZM57.2997 8.12383C57.4902 8.12783 57.6789 8.08758 57.8503 8.00646C58.0045 7.93439 58.1346 7.8212 58.2254 7.68004C58.3159 7.52936 58.3622 7.35742 58.3591 7.18294C58.368 7.08222 58.351 6.98096 58.3096 6.88824C58.2682 6.79552 58.2039 6.71423 58.1222 6.6517C57.9166 6.52647 57.6756 6.46749 57.4335 6.48315H56.8127V8.13231L57.2997 8.12383Z" fill="white"/>
</g>
<mask id="mask16_1356_30930" style="mask-type:luminance" maskUnits="userSpaceOnUse" x="0" y="0" width="111" height="33">
<path d="M110.066 0H0.392578V32.0023H110.066V0Z" fill="white"/>
</mask>
<g mask="url(#mask16_1356_30930)">
<path d="M60.4062 5.8418H63.3302L63.2469 6.52878H61.2727V7.85792H63.1262V8.49794H61.2551V9.97004H63.3456L63.282 10.6677H60.4062V5.8418Z" fill="white"/>
</g>
<mask id="mask17_1356_30930" style="mask-type:luminance" maskUnits="userSpaceOnUse" x="0" y="0" width="111" height="33">
<path d="M110.066 0H0.392578V32.0023H110.066V0Z" fill="white"/>
</mask>
<g mask="url(#mask17_1356_30930)">
<path d="M66.5117 5.8418H67.3672V10.6677H66.5117V5.8418Z" fill="white"/>
</g>
<mask id="mask18_1356_30930" style="mask-type:luminance" maskUnits="userSpaceOnUse" x="0" y="0" width="111" height="33">
<path d="M110.066 0H0.392578V32.0023H110.066V0Z" fill="white"/>
</mask>
<g mask="url(#mask18_1356_30930)">
<path d="M69.6331 6.53731H68.0977L68.1723 5.8418H72.0328L71.9539 6.53731H70.4908V10.6677H69.6331V6.53731Z" fill="white"/>
</g>
<mask id="mask19_1356_30930" style="mask-type:luminance" maskUnits="userSpaceOnUse" x="0" y="0" width="111" height="33">
<path d="M110.066 0H0.392578V32.0023H110.066V0Z" fill="white"/>
</mask>
<g mask="url(#mask19_1356_30930)">
<path d="M75.7506 10.4303C75.3918 10.2334 75.1021 9.93613 74.9193 9.57699C74.7179 9.17928 74.6186 8.74005 74.6298 8.2969C74.6192 7.83406 74.7247 7.37571 74.9368 6.96128C75.1319 6.58814 75.4375 6.28047 75.8143 6.07802C76.2332 5.86189 76.7024 5.7546 77.1764 5.76653C77.6321 5.7546 78.0827 5.8614 78.4815 6.07588C78.8394 6.27271 79.1277 6.57019 79.3085 6.9293C79.5049 7.32322 79.6026 7.75672 79.5936 8.19451C79.6059 8.66271 79.4989 9.12666 79.2822 9.54501C79.0864 9.91768 78.781 10.2251 78.4048 10.4283C77.9902 10.6434 77.5255 10.7507 77.0558 10.7397C76.6001 10.7517 76.1495 10.6448 75.7506 10.4303ZM77.9727 9.83941C78.2133 9.68284 78.4004 9.45994 78.5101 9.19936C78.6331 8.90038 78.6936 8.58044 78.6877 8.2585C78.6933 7.94237 78.6397 7.62792 78.5298 7.33043C78.4323 7.07288 78.2572 6.84987 78.0275 6.69038C77.76 6.53124 77.4527 6.44701 77.1391 6.44701C76.8256 6.44701 76.5182 6.53124 76.2507 6.69038C76.0082 6.85402 75.8194 7.08216 75.7068 7.34749C75.583 7.63446 75.521 7.94306 75.5247 8.2542C75.5195 8.57494 75.5775 8.8936 75.6958 9.19299C75.8004 9.45612 75.9829 9.68326 76.22 9.84583C76.4797 10.0125 76.7865 10.0961 77.0975 10.0847C77.408 10.091 77.7132 10.0054 77.9727 9.83941Z" fill="white"/>
</g>
<mask id="mask20_1356_30930" style="mask-type:luminance" maskUnits="userSpaceOnUse" x="0" y="0" width="111" height="33">
<path d="M110.066 0H0.392578V32.0023H110.066V0Z" fill="white"/>
</mask>
<g mask="url(#mask20_1356_30930)">
<path d="M80.543 5.8418H81.5257L83.9803 9.58182C83.9581 9.22556 83.9499 8.89914 83.9499 8.59831V5.8418H84.7437V10.6677H83.792L81.2997 6.86803C81.3239 7.29472 81.3371 7.68089 81.3371 8.01587V10.6677H80.543V5.8418Z" fill="white"/>
</g>
<mask id="mask21_1356_30930" style="mask-type:luminance" maskUnits="userSpaceOnUse" x="0" y="0" width="111" height="33">
<path d="M110.066 0H0.392578V32.0023H110.066V0Z" fill="white"/>
</mask>
<g mask="url(#mask21_1356_30930)">
<path fill-rule="evenodd" clip-rule="evenodd" d="M22.5484 5.86719H13.4434C9.15061 5.86719 7.58008 7.39474 7.58008 11.57V20.4322C7.58008 24.6074 9.15061 26.135 13.4434 26.135H22.5484C26.8412 26.135 28.4139 24.6074 28.4139 20.4322V11.57C28.4183 7.39482 26.8477 5.86719 22.5484 5.86719Z" fill="#C8102E"/>
</g>
<mask id="mask22_1356_30930" style="mask-type:luminance" maskUnits="userSpaceOnUse" x="0" y="0" width="111" height="33">
<path d="M110.066 0H0.392578V32.0023H110.066V0Z" fill="white"/>
</mask>
<g mask="url(#mask22_1356_30930)">
<path d="M11.7052 16.002H12.2579V18.6539H11.7052V17.5765H10.4571V18.6539H9.9043V16.002H10.4571V17.0687H11.7052V16.002ZM14.82 17.5189C14.82 17.9455 14.6006 18.1803 14.2014 18.1803C13.8022 18.1803 13.5785 17.9455 13.5785 17.4954V16.002H13.0257V17.5167C13.0257 18.2613 13.4512 18.688 14.1926 18.688C14.9341 18.688 15.3727 18.2613 15.3727 17.4933V16.002H14.82V17.5189ZM21.2075 17.8239L20.5889 16.002H20.1349L19.5207 17.8261L18.9175 16.002H18.3296L19.2794 18.6539H19.7379L20.3542 16.913L20.9728 18.6539H21.4357L22.3854 16.002H21.8108L21.2075 17.8239ZM23.3747 17.5103H24.3815V17.0303H23.3747V16.4884H24.8356V16.002H22.8307V18.6475H24.8882V18.1695H23.3747V17.5103ZM25.5463 18.6475H26.0925V16.002H25.5463V18.6475ZM16.4651 18.0991L16.2173 18.6496H15.6535L16.8446 16.002H17.3315L18.5271 18.6496H17.9567L17.722 18.1013L16.4651 18.0991ZM16.6713 17.6213H17.5026L17.0859 16.674L16.6713 17.6213Z" fill="white"/>
</g>
<mask id="mask23_1356_30930" style="mask-type:luminance" maskUnits="userSpaceOnUse" x="0" y="0" width="111" height="33">
<path d="M110.066 0H0.392578V32.0023H110.066V0Z" fill="white"/>
</mask>
<g mask="url(#mask23_1356_30930)">
<path d="M17.9973 12.6289C17.0776 12.6283 16.1959 12.2728 15.5457 11.6403C14.8954 11.0079 14.5299 10.1502 14.5293 9.25586H15.0184C15.0184 10.0242 15.3323 10.7612 15.8909 11.3046C16.4495 11.8479 17.2072 12.1531 17.9973 12.1531C18.7873 12.1531 19.5449 11.8479 20.1035 11.3046C20.6622 10.7612 20.976 10.0242 20.976 9.25586H21.4652C21.4646 10.1502 21.0991 11.0079 20.4488 11.6403C19.7986 12.2728 18.9168 12.6283 17.9973 12.6289Z" fill="white"/>
</g>
</g>
<defs>
<clipPath id="clip0_1356_30930">
<rect width="110" height="32" rx="8" fill="white"/>
</clipPath>
</defs>
</svg>
