<svg width="109" height="32" viewBox="0 0 109 32" fill="none" xmlns="http://www.w3.org/2000/svg">
<g clip-path="url(#clip0_1356_30877)">
<path d="M105.276 0H3.72417C1.66737 0 0 1.69334 0 3.78219V28.2178C0 30.3067 1.66737 32 3.72417 32H105.276C107.333 32 109 30.3067 109 28.2178V3.78219C109 1.69334 107.333 0 105.276 0Z" fill="black"/>
<path d="M54.9873 17.5019C53.0939 17.5019 51.5461 18.9408 51.5461 20.9192C51.5461 22.8977 53.0889 24.3365 54.9873 24.3365C56.8857 24.3365 58.4284 22.8877 58.4284 20.9192C58.4284 18.9508 56.8857 17.5019 54.9873 17.5019ZM54.9873 22.9926C53.9504 22.9926 53.0538 22.1383 53.0538 20.9192C53.0538 19.7002 53.9504 18.8458 54.9873 18.8458C56.0241 18.8458 56.9207 19.6852 56.9207 20.9192C56.9207 22.1533 56.0241 22.9926 54.9873 22.9926ZM47.4838 17.5019C45.5904 17.5019 44.0427 18.9408 44.0427 20.9192C44.0427 22.8977 45.5854 24.3365 47.4838 24.3365C49.3822 24.3365 50.925 22.8877 50.925 20.9192C50.925 18.9508 49.3822 17.5019 47.4838 17.5019ZM47.4838 22.9926C46.447 22.9926 45.5504 22.1383 45.5504 20.9192C45.5504 19.7002 46.447 18.8458 47.4838 18.8458C48.5207 18.8458 49.4173 19.6852 49.4173 20.9192C49.4173 22.1533 48.5207 22.9926 47.4838 22.9926ZM38.5579 18.5511V19.9999H42.0341C41.9289 20.8143 41.6584 21.4088 41.2427 21.8235C40.7368 22.3281 39.9453 22.8827 38.5579 22.8827C36.414 22.8827 34.741 21.159 34.741 19.0257C34.741 16.8924 36.414 15.1687 38.5579 15.1687C39.7149 15.1687 40.5564 15.6234 41.1776 16.2029L42.2044 15.1787C41.3328 14.3493 40.1808 13.7148 38.5579 13.7148C35.6226 13.7148 33.1582 16.098 33.1582 19.0207C33.1582 21.9434 35.6226 24.3266 38.5579 24.3266C40.1407 24.3266 41.3378 23.807 42.2695 22.8377C43.2312 21.8785 43.5268 20.5345 43.5268 19.4454C43.5268 19.1106 43.5017 18.7959 43.4466 18.5411H38.5529L38.5579 18.5511ZM75.0582 19.6752C74.7727 18.9108 73.9011 17.5019 72.1229 17.5019C70.3447 17.5019 68.8921 18.8858 68.8921 20.9192C68.8921 22.8327 70.3447 24.3365 72.2932 24.3365C73.866 24.3365 74.7727 23.3773 75.1483 22.8227L73.9812 22.0483C73.5905 22.6179 73.0596 22.9926 72.2932 22.9926C71.5268 22.9926 70.9809 22.6429 70.6302 21.9584L75.2134 20.0699L75.0582 19.6802V19.6752ZM70.3848 20.8143C70.3447 19.4953 71.4116 18.8209 72.178 18.8209C72.7741 18.8209 73.28 19.1206 73.4503 19.5453L70.3898 20.8143H70.3848ZM66.6581 24.1267H68.1658V14.0796H66.6581V24.1267ZM64.1937 18.2613H64.1436C63.808 17.8616 63.1569 17.4969 62.3404 17.4969C60.6273 17.4969 59.0545 19.0007 59.0545 20.9292C59.0545 22.8577 60.6273 24.3315 62.3404 24.3315C63.1569 24.3315 63.808 23.9668 64.1436 23.5572H64.1937V24.0468C64.1937 25.3557 63.4925 26.0552 62.3655 26.0552C61.4438 26.0552 60.8728 25.3957 60.6374 24.8362L59.325 25.3807C59.7007 26.285 60.7025 27.3992 62.3604 27.3992C64.1236 27.3992 65.6163 26.365 65.6163 23.8369V17.7017H64.1887V18.2563L64.1937 18.2613ZM62.4656 22.9876C61.4288 22.9876 60.5572 22.1183 60.5572 20.9292C60.5572 19.7401 61.4288 18.8458 62.4656 18.8458C63.5025 18.8458 64.2939 19.7251 64.2939 20.9292C64.2939 22.1333 63.4875 22.9876 62.4656 22.9876ZM82.1058 14.0796H78.5043V24.1267H80.007V20.3197H82.1058C83.7738 20.3197 85.4117 19.1156 85.4117 17.2021C85.4117 15.2886 83.7738 14.0846 82.1058 14.0846V14.0796ZM82.1458 18.9208H80.007V15.4785H82.1458C83.2678 15.4785 83.909 16.4077 83.909 17.2021C83.909 17.9965 83.2729 18.9258 82.1458 18.9258V18.9208ZM91.4375 17.4769C90.3505 17.4769 89.2235 17.9565 88.7577 19.0157L90.0901 19.5703C90.3756 19.0157 90.9065 18.8358 91.4625 18.8358C92.2389 18.8358 93.0303 19.3005 93.0453 20.1298V20.2347C92.7749 20.0799 92.1888 19.8451 91.4775 19.8451C90.04 19.8451 88.5773 20.6344 88.5773 22.1083C88.5773 23.4522 89.7545 24.3166 91.0768 24.3166C92.0886 24.3166 92.6446 23.8619 92.9953 23.3323H93.0453V24.1067H94.4979V20.2547C94.4979 18.4711 93.1656 17.4769 91.4425 17.4769H91.4375ZM91.2571 22.9826C90.7663 22.9826 90.08 22.7378 90.08 22.1283C90.08 21.3539 90.9366 21.0541 91.6729 21.0541C92.3341 21.0541 92.6446 21.194 93.0453 21.3888C92.9301 22.3181 92.1237 22.9776 91.2571 22.9776V22.9826ZM99.7824 17.6967L98.0593 22.0533H98.0092L96.221 17.6967H94.6031L97.2829 23.782L95.7552 27.1693H97.323L101.455 17.6967H99.7824ZM86.2432 24.1217H87.7459V14.0746H86.2432V24.1217Z" fill="white"/>
<path d="M8.49957 6.08621C8.26415 6.33102 8.12891 6.71572 8.12891 7.21532V24.9715C8.12891 25.4711 8.26916 25.8508 8.49957 26.1006L8.55968 26.1605L18.5325 16.2133V15.9785L8.55968 6.03125L8.49957 6.0912V6.08621Z" fill="#5BC9F4"/>
<path d="M21.8592 19.5298L18.5332 16.2124V15.9776L21.8592 12.6602L21.9343 12.7051L25.8713 14.9384C26.9983 15.5779 26.9983 16.6171 25.8713 17.2566L21.9343 19.4898L21.8592 19.5348V19.5298Z" fill="url(#paint0_linear_1356_30877)"/>
<path d="M21.934 19.4861L18.5329 16.0938L8.5 26.1009C8.87066 26.4906 9.48176 26.5406 10.173 26.1509L21.934 19.4861Z" fill="url(#paint1_linear_1356_30877)"/>
<path d="M21.934 12.7007L10.173 6.03586C9.48176 5.64617 8.87066 5.69113 8.5 6.08583L18.5329 16.093L21.934 12.7007Z" fill="url(#paint2_linear_1356_30877)"/>
<path d="M37.0305 6.65465C36.7299 6.38486 36.3292 6.21499 35.8884 6.21499C34.8966 6.21499 34.1353 7.02936 34.1353 8.03357C34.1353 9.03779 34.8966 9.84216 35.8884 9.84216C36.7399 9.84216 37.3611 9.34754 37.4011 8.56815H36.0537V8.01359H38.1324C38.1324 9.67229 37.2459 10.4567 35.8884 10.4567C34.531 10.4567 33.4941 9.37253 33.4941 8.03357C33.4941 6.69462 34.541 5.60547 35.8884 5.60547C36.5145 5.60547 37.0806 5.84528 37.4913 6.22998L37.0305 6.65465Z" fill="white"/>
<path d="M41.8081 5.66016V6.25469H39.6392V7.76351H41.5326V8.36304H39.6392V9.79193H41.8732V10.3865H38.998V5.66016H41.8031H41.8081Z" fill="white"/>
<path d="M45.9568 5.66016V6.26468H44.5193V10.3865H43.8731V6.26468H42.4355V5.66016H45.9568Z" fill="white"/>
<path d="M49.0279 5.66016V10.3865H48.3867V5.66016H49.0279Z" fill="white"/>
<path d="M53.3904 5.66016V6.26468H51.9529V10.3865H51.3067V6.26468H49.8691V5.66016H53.3904Z" fill="white"/>
<path d="M57.9021 5.60547C59.2595 5.60547 60.3114 6.68962 60.3114 8.03357C60.3114 9.37752 59.2595 10.4567 57.9021 10.4567C56.5447 10.4567 55.5078 9.37253 55.5078 8.03357C55.5078 6.69462 56.5547 5.60547 57.9021 5.60547ZM57.9021 9.83716C58.8989 9.83716 59.6653 9.03279 59.6653 8.03357C59.6653 7.03435 58.9039 6.21999 57.9021 6.21999C56.9003 6.21999 56.149 7.02936 56.149 8.03357C56.149 9.03779 56.9103 9.83716 57.9021 9.83716Z" fill="white"/>
<path d="M64.093 10.3865L61.9341 6.82425V10.3865H61.293V5.66016H61.9241L64.0629 9.1924V5.66016H64.7041V10.3865H64.093Z" fill="white"/>
</g>
<defs>
<linearGradient id="paint0_linear_1356_30877" x1="25.14" y1="16.0925" x2="5.66017" y2="16.0925" gradientUnits="userSpaceOnUse">
<stop stop-color="#FEE000"/>
<stop offset="0.42" stop-color="#FBBC0E"/>
<stop offset="0.78" stop-color="#F9A318"/>
<stop offset="1" stop-color="#F99B1C"/>
</linearGradient>
<linearGradient id="paint1_linear_1356_30877" x1="20.0857" y1="17.9373" x2="1.81506" y2="36.255" gradientUnits="userSpaceOnUse">
<stop stop-color="#EF4547"/>
<stop offset="1" stop-color="#C6186D"/>
</linearGradient>
<linearGradient id="paint2_linear_1356_30877" x1="1.6828" y1="-4.10121" x2="16.6011" y2="10.8555" gradientUnits="userSpaceOnUse">
<stop stop-color="#279E6F"/>
<stop offset="0.04" stop-color="#2B9F6E"/>
<stop offset="0.46" stop-color="#52B16B"/>
<stop offset="0.8" stop-color="#6BBC69"/>
<stop offset="1" stop-color="#74C169"/>
</linearGradient>
<clipPath id="clip0_1356_30877">
<rect width="109" height="32" rx="8" fill="white"/>
</clipPath>
</defs>
</svg>
