<?xml version="1.0" encoding="UTF-8"?>
<svg id="Layer_2" data-name="Layer 2" xmlns="http://www.w3.org/2000/svg" viewBox="0 0 659.36 143.7">
  <defs>
    <style>
      .cls-1 {
        fill: #18a48c;
      }
    </style>
  </defs>
  <g id="Layer_1-2" data-name="Layer 1">
    <g>
      <g>
        <rect class="cls-1" x="365.62" y="19.9" width="1.52" height="29.92"/>
        <path class="cls-1" d="M377.34,20.7h11.09c6.57,0,9,2.69,9,7.68v3.88c0,4.95-2.65,7.64-9.26,7.64h-5.46v9.22h-5.38v-28.42ZM388.13,25.44h-5.42v9.73h5.42c3.03,0,3.93-1.11,3.93-3.46v-2.9c0-2.35-.98-3.37-3.93-3.37Z"/>
        <path class="cls-1" d="M408.95,49.55c-7.13,0-9.05-3.93-9.05-8.19v-5.25c0-4.27,1.92-8.19,9.05-8.19s9.05,3.93,9.05,8.19v5.25c0,4.27-1.92,8.19-9.05,8.19ZM408.95,32.35c-2.77,0-3.84,1.24-3.84,3.58v5.59c0,2.35,1.07,3.58,3.84,3.58s3.84-1.24,3.84-3.58v-5.59c0-2.35-1.07-3.58-3.84-3.58Z"/>
        <path class="cls-1" d="M432.04,32.69c-2.01.9-3.63,1.83-5.5,3.03v13.4h-5.21v-20.78h4.39l.34,2.3c1.15-.77,3.63-2.22,5.46-2.73l.51,4.78Z"/>
        <path class="cls-1" d="M447.1,48.74c-1.11.47-3.24.81-4.56.81-3.8,0-5.72-1.79-5.72-5.5v-11.56h-3.12v-4.14h3.12v-5.16l5.2-.73v5.89h5.33l-.34,4.14h-4.99v10.88c0,1.11.51,1.83,1.88,1.83.77,0,1.71-.17,2.6-.43l.6,3.97Z"/>
        <path class="cls-1" d="M463.14,23.6c-.98-.21-2.13-.34-2.99-.34-2.05,0-2.35.9-2.35,2.47v2.6h5.29l-.3,4.14h-4.99v16.64h-5.21v-16.64h-3.33v-4.14h3.33v-2.9c0-4.31,2.01-6.44,6.61-6.44,1.62,0,3.11.21,4.48.6l-.55,4.01Z"/>
        <path class="cls-1" d="M473.94,49.55c-7.13,0-9.05-3.93-9.05-8.19v-5.25c0-4.27,1.92-8.19,9.05-8.19s9.05,3.93,9.05,8.19v5.25c0,4.27-1.92,8.19-9.05,8.19ZM467.75,21h4.31v4.48h-4.31v-4.48ZM473.94,32.35c-2.77,0-3.84,1.24-3.84,3.58v5.59c0,2.35,1.07,3.58,3.84,3.58s3.84-1.24,3.84-3.58v-5.59c0-2.35-1.07-3.58-3.84-3.58ZM475.81,21h4.31v4.48h-4.31v-4.48Z"/>
        <path class="cls-1" d="M497.92,49.12l-2.77,8.41h-4.95l2.6-8.41h-1.84l-6.57-20.78h5.33l4.74,15.79,4.78-15.79h5.33l-6.66,20.78Z"/>
        <polygon class="cls-1" points="276.31 18.01 280.3 14.02 276.31 10.04 272.34 14.02 276.31 18.01"/>
        <polygon class="cls-1" points="281.67 14.02 285.65 10.04 289.64 14.02 285.65 18.01 281.67 14.02"/>
        <polygon class="cls-1" points="266.81 14.02 241 14.02 241 20.63 250.11 20.63 250.11 49.1 257.7 49.1 257.7 20.63 266.81 20.63 266.81 14.02"/>
        <path class="cls-1" d="M318.74,40.74h4.84v-20.11h-24.45v28.47h7.59v-8.36h3.17l6,8.36h8.82l-5.97-8.36ZM315.98,34.13h-9.26v-6.9h9.26v6.9Z"/>
        <path class="cls-1" d="M329.46,49.1h7.58v-11.15h5.78c3.18,0,5,.04,5,3.26v7.9h7.6v-8.04c0-5.62-.83-8.57-7.46-9.44l7.87-10.98h-8.86l-7.65,10.7h-2.29v-10.7h-7.58v28.47Z"/>
        <path class="cls-1" d="M285.65,39.12v-18.49h7.6v18.98c0,7.59-3.58,9.72-11.92,9.72-11.4,0-12.61-2.88-12.61-9.72v-18.98h7.58v18.83c0,3.23,1.83,3.26,5.03,3.26s4.31-.27,4.31-3.6Z"/>
        <path class="cls-1" d="M200.59,31.52c-3.19,0-5.01-.02-5.01-3.26v-7.64h-7.59v7.8c0,5.89.9,8.85,8.46,9.55v11.12h7.59v-11.12c5.89-.61,8.47-3.12,8.47-9.56v-7.8h-7.59v7.29c0,3.34-1.1,3.6-4.33,3.6Z"/>
        <polygon class="cls-1" points="183.21 26.85 170.27 26.85 170.27 31.71 182.41 31.71 182.41 37.94 170.27 37.94 170.27 42.87 183.47 42.87 183.47 49.1 162.67 49.1 162.67 20.63 183.21 20.63 183.21 26.85"/>
        <polygon class="cls-1" points="118.8 42.87 109.47 42.87 109.47 20.63 101.87 20.63 101.87 49.1 126.4 49.1 126.4 20.63 118.8 20.63 118.8 42.87"/>
        <polygon class="cls-1" points="239.09 27.23 231.8 27.23 231.8 49.1 224.21 49.1 224.21 27.23 216.92 27.23 216.92 20.63 239.09 20.63 239.09 27.23"/>
        <path class="cls-1" d="M70.02,49.33h7.59v-14.46h5.77c3.19,0,5.01.05,5.01,3.27v11.19h7.6v-11.35c0-5.67-.84-8.61-7.61-9.46l8.1-14.27h-8.8l-7.95,14.01h-2.12v-14.01h-7.59v35.08Z"/>
        <path class="cls-1" d="M139.86,20.63v11.58c0,3.99.97,6.45,3.57,9.23l1.11,1.17,1.16-1.17c2.55-2.73,3.5-5.32,3.5-9.23v-11.58h7.59v11.58c0,9.97-5.13,13.81-8.05,16.89h-8.42c-2.91-3.08-8.04-6.92-8.04-16.89v-11.58h7.58Z"/>
        <path class="cls-1" d="M27.49,56.44l-2.76,1.72-1.82-4.42,4.58,2.7ZM23.09,44.32l4.43,2.74-2.62,1.77-1.81-4.51ZM22.95,34.8l4.64,2.8-2.72,1.97-1.92-4.77ZM30.31,42.46l4.54-2.82-1.76,4.62-2.78-1.8ZM23.02,49.04l8.51,5.15-2.57,1.67-4.41-2.48-1.52-4.34ZM26.35,49.33l8.41-5.09-1.36,4.09-4.38,2.96-2.68-1.96ZM23.03,39.74l8.57,4.92-2.83,1.93-4.28-2.59-1.47-4.26ZM26.23,40.04l8.54-5.14-1.54,4.4-4.16,2.51-2.84-1.77ZM25.96,35.12h5.7l-2.71,2.14-2.99-2.14ZM30.31,51.62l4.54-2.81-1.76,4.62-2.78-1.81ZM28.8,31.89s-4.59-13.24-5.46-15.9c-.36-1.08-.51-2.01.18-2.91l5.28-6.92,5.27,6.92c.69.9.54,1.83.19,2.91-.87,2.65-5.45,15.9-5.45,15.9ZM54.76,33.4h-24.34s11.09-5.7,11.09-5.7c6.18-3.19,8.23-.52,10.49,2.28l2.76,3.42ZM29.88,32.18l7.65-13.71c.99-1.77,3.53-2.66,5.75-1.33l8.6,5.16h-4.32c-1.89.01-3.4.74-4.77,1.62l-12.91,8.26ZM2.83,33.4l2.76-3.42c2.26-2.8,4.3-5.47,10.49-2.28l11.09,5.71H2.83ZM27.71,32.18l-12.91-8.26c-1.37-.88-2.88-1.6-4.78-1.6h-4.31s8.6-5.18,8.6-5.18c2.22-1.33,4.76-.44,5.75,1.33l7.65,13.71ZM25.85,59.08l8.91-5.27-1.7,5.12c-1.37.2-2.76.31-4.18.31-1.02,0-2.03-.05-3.02-.16Z"/>
        <path class="cls-1" d="M28.8,3.01C12.89,3.01,0,15.9,0,31.81s12.89,28.8,28.8,28.8,28.8-12.89,28.8-28.8S44.71,3.01,28.8,3.01ZM28.8,59.23c-15.14,0-27.42-12.28-27.42-27.42S13.66,4.38,28.8,4.38s27.43,12.29,27.43,27.43-12.28,27.42-27.43,27.42Z"/>
        <path class="cls-1" d="M311.54,100.75h-4.35v-2.3c-1.79,1.62-4,2.73-7.07,2.73-3.58,0-4.81-1.92-4.81-4.73,0-.68.09-1.41.21-2.17l1.07-6.05c.94-5.33,1.92-8.65,10.1-8.65.77,0,2.26.13,3.41.38l1.49-8.44,5.24-.72-5.28,29.95ZM309.36,84.13c-.94-.21-2.3-.26-3.02-.26-3.28,0-4.13,1.32-4.6,4.05l-1.28,7.33c-.04.26-.04.38-.04.51,0,.77.51,1.11,1.45,1.11,2.17,0,4.69-1.75,5.79-3.11l1.7-9.63Z"/>
        <path class="cls-1" d="M322.4,94.7c-.21,1.19-.26,2.22,1.62,2.22,2.22,0,5.28-1.02,7.97-2.39l1.11,3.92c-2.51,1.53-6.35,2.73-9.8,2.73-5.5,0-6.6-3.07-5.84-7.41l1.11-6.31c.89-4.9,3.2-7.88,9.46-7.88,3.96,0,6.65,2.05,6.65,5.41,0,3.71-2.43,5.84-8.1,7.58-2.51.77-3.02.89-4,1.15l-.17.98ZM329.77,85.2c0-.94-.81-1.62-2.17-1.62-2.34,0-3.49,1.45-3.83,3.41l-.38,2.13c.72-.21,1.02-.3,3.11-.94,2.3-.72,3.28-1.62,3.28-2.98Z"/>
        <path class="cls-1" d="M352.14,103.9c-.81,4.52-2.98,5.67-7.71,5.67-2,0-6.05-.55-9.29-1.62l.98-3.79c2.6.77,5.58,1.41,8.18,1.41,2.13,0,2.56-.64,2.85-2.43l.81-4.56c-2.3,1.28-4.47,1.75-6.56,1.75-3.58,0-4.81-1.92-4.81-4.73,0-.68.09-1.41.21-2.17l.94-5.2c1.15-6.48,2.81-8.65,10.27-8.65,2.68,0,6.01.72,8.14,1.58l-4.01,22.75ZM350.52,84.18c-.94-.17-1.96-.3-3.02-.3-3.28,0-4.13,1.36-4.6,4.09l-1.15,6.43c-.04.26-.04.38-.04.51,0,.77.51,1.11,1.45,1.11,1.62,0,3.75-.72,5.58-1.92l1.79-9.93ZM343.28,73.31l2.68-1.07c.34,1.62,1.15,2.77,3.2,2.77s3.2-1.32,3.96-2.98l2.47,1.32c-.77,2.3-2.77,4.64-6.82,4.64-3.37,0-5.28-2.3-5.5-4.69Z"/>
        <path class="cls-1" d="M363.35,94.7c-.21,1.19-.26,2.22,1.62,2.22,2.22,0,5.28-1.02,7.97-2.39l1.11,3.92c-2.51,1.53-6.35,2.73-9.8,2.73-5.5,0-6.6-3.07-5.84-7.41l1.11-6.31c.89-4.9,3.2-7.88,9.46-7.88,3.96,0,6.65,2.05,6.65,5.41,0,3.71-2.43,5.84-8.1,7.58-2.51.77-3.02.89-4,1.15l-.17.98ZM370.72,85.2c0-.94-.81-1.62-2.17-1.62-2.34,0-3.49,1.45-3.83,3.41l-.38,2.13c.72-.21,1.02-.3,3.11-.94,2.3-.72,3.28-1.62,3.28-2.98Z"/>
        <path class="cls-1" d="M390.66,84.26c-2.43,1.32-3.96,2.3-6.18,3.71l-2.26,12.78h-5.11l3.58-20.32,4.47-.77-.21,3.02c1.45-1.07,3.58-2.34,5.33-3.07l.38,4.64Z"/>
        <path class="cls-1" d="M403.23,100.75l-2.98-20.24,5.07-.72,1.96,16.45,4.9-11.03c.47-1.11.6-2,.6-2.85,0-.68-.09-1.28-.3-1.96l4.98-.72c.26.81.38,1.83.38,2.6,0,1.02-.13,2.47-.72,3.71l-6.86,14.78h-7.03Z"/>
        <path class="cls-1" d="M424.23,94.7c-.21,1.19-.26,2.22,1.62,2.22,2.22,0,5.28-1.02,7.97-2.39l1.11,3.92c-2.51,1.53-6.35,2.73-9.8,2.73-5.5,0-6.6-3.07-5.84-7.41l1.11-6.31c.89-4.9,3.2-7.88,9.46-7.88,3.96,0,6.65,2.05,6.65,5.41,0,3.71-2.43,5.84-8.1,7.58-2.51.77-3.02.89-4,1.15l-.17.98ZM431.61,85.2c0-.94-.81-1.62-2.17-1.62-2.34,0-3.49,1.45-3.83,3.41l-.38,2.13c.72-.21,1.02-.3,3.11-.94,2.3-.72,3.28-1.62,3.28-2.98Z"/>
        <path class="cls-1" d="M451.55,84.26c-2.43,1.32-3.96,2.3-6.18,3.71l-2.26,12.78h-5.11l3.58-20.32,4.47-.77-.21,3.02c1.45-1.07,3.58-2.34,5.33-3.07l.38,4.64Z"/>
        <path class="cls-1" d="M455,80.38l5.24-.72-3.71,21.09h-5.11l3.58-20.37ZM456.57,71.52l5.24-.72-1.02,5.79-5.24.77,1.02-5.84Z"/>
        <path class="cls-1" d="M475.62,84.26c-2.43,1.32-3.96,2.3-6.18,3.71l-2.26,12.78h-5.11l3.58-20.32,4.47-.77-.21,3.02c1.45-1.07,3.58-2.34,5.33-3.07l.38,4.64Z"/>
        <path class="cls-1" d="M479.07,80.38l5.24-.72-3.71,21.09h-5.11l3.58-20.37ZM480.65,71.52l5.24-.72-1.02,5.79-5.24.77,1.02-5.84Z"/>
        <path class="cls-1" d="M486.65,96.79l10.82-12.74h-8.82l.6-4.05h14.19l-.04,3.92-10.86,12.74h8.95l-.68,4.09h-13.98l-.17-3.96Z"/>
      </g>
      <g>
        <path class="cls-1" d="M562.58,73.37v28.85c4.12,3.18,8.69,5.72,13.58,7.51v-21.24c-5.77-3.51-10.51-8.77-13.58-15.12Z"/>
        <path class="cls-1" d="M559.39,22.73c0-.92,0-1.84,0-2.77,0-2.11,0-4.21,0-6.32,0-4.02,0-8.05,0-12.07,0-.3,0-.61-.02-.91,0-.18-.15-.35-.29-.36-.26-.01-.52-.03-.78-.03-3.08.01-2.03.03-5.1.04-1.73,0-3.45.02-5.18.02-.22,0-.43,0-.65.02-.12.02-.25.07-.34.15-.16.14-.3.31-.43.48-1.29,1.59-2.76,2.98-4.36,4.25-1.9,1.51-3.94,2.82-6.08,3.96-4.52,2.43-9.3,4.18-14.27,5.43-.34.08-.67.17-1.01.25-.2.05-.3.17-.31.36-.01.26-.02.52-.02.78,0,5.15,0,10.3,0,15.45,0,.26.02.52.06.77,0,.06.11.15.18.16.17.02.34.01.51,0,2.6-.17,5.15-.65,7.67-1.26,3.28-.79,6.5-1.8,9.66-2.99.24-.09.48-.18.73-.27.25-.09.46.03.46.26.01.82.02,1.64.02,2.47,0,12.46,0,24.92,0,37.39h.01c0,2.77,0,5.54,0,8.31,0,10.17,0,20.34,0,30.51,0,.39,0,.78.02,1.17,0,.24.17.43.39.43.35.01.69.01,1.04.01,3.96,0,7.92,0,11.89,0,2.96,0,1.8,0,4.76,0,1.63,0,1.43.17,1.43-1.47,0-5.67,0-11.34,0-17.01,0-.35,0-.7,0-1.05,0-1.04,0-2.07,0-3.11,0-.01,0-.02,0-.03V22.81s0-.05,0-.07Z"/>
        <path class="cls-1" d="M582.9,106.24c0,1.69,1.84,3.53,4.48,3.53,1.84,0,3.23-1.47,3.23-3.45s-2.13-3.97-4.11-3.97c-1.84,0-3.6,1.76-3.6,3.89Z"/>
        <path class="cls-1" d="M621.9,81.7c-1.47,0-6.54,6.61-10.8,14.98-3.08,6.02-7.71,10.58-9.25,10.58-.29,0-.51-.29-.51-.59,0-3.75,5.8-11.02,5.8-15.57,0-2.79-2.06-6.02-3.89-6.02-.73,0-1.03.29-1.03.88,0,6.02-5.95,13-5.95,18.88,0,2.94,2.79,5.14,5.29,5.14s4.7-2.64,8.37-7.2c-3.82,14.18-13.37,38.27-26.52,38.27-2.57,0-4.19-1.18-4.99-1.18-.37,0-.73.44-.73.88,0,.95,2.72,2.94,7.05,2.94,21.74,0,27.1-25.71,30.85-41.87,3.38-14.62,8.37-17.55,8.37-18.07,0-.59-.59-2.06-2.06-2.06Z"/>
        <path class="cls-1" d="M658.11,93.82c-.22,0-.37.22-.66.59-4.33,6.17-11.83,16.09-13.73,16.09-.59,0-1.1-.51-1.1-1.47,0-11.02,15.79-36.58,15.79-44.95,0-3.75-2.13-5.95-2.72-5.95s-.88.59-.88,1.62c-.11,7.07-10.95,22.48-15.78,35.06-2.72,3.73-9.48,11.72-11.32,11.72-.59,0-1.25-.37-1.25-1.62.15-5.44,6.54-11.97,6.68-18.36,0-1.4-1.17-2.72-1.76-2.72-.51,0-.73.66-1.25,1.54-4.48,7.42-9.33,11.09-9.33,16.38,0,4.92,3.75,7.64,7.05,7.64,2.64,0,6.3-3.8,9.13-7.46-.15.96-.24,1.88-.24,2.76,0,5.95,4.04,8.74,6.61,8.74,4.99,0,12.12-11.38,15.42-16.82.37-.59.59-1.03.59-1.47,0-.51-.59-1.32-1.25-1.32Z"/>
        <path class="cls-1" d="M592.86,19.47c18.8,0,34.1,16.5,34.1,36.78,0,5.46-1.11,10.63-3.1,15.3h19.19c1.28-4.87,1.97-9.99,1.97-15.3,0-31.02-23.4-56.25-52.16-56.25-11.28,0-21.73,3.89-30.27,10.47v28.85c5.69-11.79,17.12-19.86,30.27-19.86Z"/>
      </g>
    </g>
  </g>
</svg>