<svg width="100" height="15" viewBox="0 0 100 15" fill="none" xmlns="http://www.w3.org/2000/svg">
<path d="M14.8693 10.2317C14.2741 11.7931 13.1555 13.0953 11.7074 13.9122C10.2593 14.7292 8.57324 15.0095 6.94161 14.7044C5.30998 14.3993 3.83578 13.5282 2.77475 12.242C1.71372 10.9559 1.13281 9.33595 1.13281 7.66324C1.13281 5.99053 1.71372 4.3706 2.77475 3.08447C3.83578 1.79834 5.30998 0.927166 6.94161 0.622085C8.57324 0.317004 10.2593 0.597263 11.7074 1.41425C13.1555 2.23123 14.2741 3.53339 14.8693 5.09481C14.8968 5.1678 14.9062 5.24642 14.8968 5.32391C14.8874 5.4014 14.8595 5.47542 14.8154 5.53958C14.7712 5.60374 14.7123 5.65612 14.6436 5.69219C14.5749 5.72826 14.4986 5.74694 14.4211 5.74661H12.0997C12.0183 5.74656 11.9382 5.72544 11.8673 5.68529C11.7963 5.64513 11.7367 5.58728 11.6942 5.51727C11.2305 4.7597 10.5343 4.17529 9.71118 3.85274C8.88808 3.53019 7.98304 3.48711 7.13345 3.73003C6.28385 3.97296 5.53608 4.48863 5.0036 5.19878C4.47112 5.90894 4.18302 6.7748 4.18302 7.66497C4.18302 8.55513 4.47112 9.421 5.0036 10.1312C5.53608 10.8413 6.28385 11.357 7.13345 11.5999C7.98304 11.8428 8.88808 11.7997 9.71118 11.4772C10.5343 11.1546 11.2305 10.5702 11.6942 9.81266C11.7369 9.74231 11.7967 9.68415 11.868 9.6437C11.9392 9.60325 12.0196 9.58187 12.1014 9.58159H14.4211C14.4983 9.58138 14.5745 9.60006 14.643 9.63604C14.7115 9.67201 14.7703 9.72421 14.8144 9.78814C14.8584 9.85207 14.8865 9.92583 14.896 10.0031C14.9056 10.0803 14.8964 10.1588 14.8693 10.2317ZM54.3731 9.58159H52.0533C51.9718 9.58183 51.8916 9.60321 51.8206 9.64368C51.7496 9.68414 51.6901 9.74234 51.6479 9.81266C51.1841 10.5713 50.4874 11.1566 49.6635 11.4798C48.8397 11.803 47.9337 11.8465 47.0832 11.6035C46.2326 11.3606 45.484 10.8445 44.9508 10.1337C44.4177 9.42283 44.1293 8.55606 44.1293 7.66497C44.1293 6.77387 44.4177 5.90711 44.9508 5.19628C45.484 4.48545 46.2326 3.96938 47.0832 3.72642C47.9337 3.48346 48.8397 3.5269 49.6635 3.85011C50.4874 4.17332 51.1841 4.75866 51.6479 5.51727C51.6902 5.58739 51.7498 5.64534 51.8208 5.68551C51.8918 5.72568 51.9719 5.74672 52.0533 5.74661H54.3731C54.4504 5.74653 54.5265 5.72759 54.595 5.69141C54.6634 5.65523 54.7222 5.60288 54.7662 5.53883C54.8103 5.47479 54.8383 5.40096 54.8479 5.32364C54.8574 5.24631 54.8483 5.1678 54.8213 5.09481C54.2261 3.53436 53.1079 2.2331 51.6605 1.41677C50.2131 0.60044 48.5279 0.320524 46.8972 0.625589C45.2665 0.930655 43.7932 1.80146 42.7328 3.08693C41.6724 4.37241 41.0919 5.99145 41.0919 7.66324C41.0919 9.33503 41.6724 10.9541 42.7328 12.2396C43.7932 13.525 45.2665 14.3958 46.8972 14.7009C48.5279 15.006 50.2131 14.7261 51.6605 13.9097C53.1079 13.0934 54.2261 11.7921 54.8213 10.2317C54.8484 10.1588 54.8576 10.0803 54.848 10.0031C54.8384 9.92583 54.8104 9.85207 54.7663 9.78814C54.7222 9.72421 54.6634 9.67201 54.5949 9.63604C54.5264 9.60006 54.4503 9.58138 54.3731 9.58159ZM39.9655 7.6641C39.9655 9.08057 39.5486 10.4652 38.7677 11.6428C37.9868 12.8204 36.8768 13.7381 35.5784 14.2797C34.2799 14.8212 32.8512 14.9624 31.4731 14.6853C30.095 14.4082 28.8294 13.7253 27.8365 12.723C26.8435 11.7207 26.1678 10.444 25.8949 9.05451C25.622 7.66501 25.7642 6.22515 26.3033 4.91709C26.8425 3.60903 27.7545 2.49157 28.9239 1.70612C30.0933 0.920659 31.4676 0.502509 32.8728 0.504556C34.7549 0.507297 36.5589 1.26281 37.8887 2.60519C39.2185 3.94757 39.9655 5.76706 39.9655 7.6641ZM36.9221 7.6641C36.9221 6.85436 36.6837 6.06282 36.2372 5.38969C35.7907 4.71656 35.1561 4.19209 34.4137 3.88269C33.6713 3.57329 32.8546 3.49286 32.0668 3.65159C31.2791 3.81032 30.5557 4.20106 29.9884 4.77436C29.4211 5.34766 29.0353 6.07774 28.8798 6.87217C28.7243 7.66661 28.8062 8.48968 29.115 9.2372C29.4239 9.98471 29.9458 10.6231 30.6147 11.0714C31.2836 11.5198 32.0695 11.7581 32.8728 11.756C33.9477 11.7533 34.9776 11.321 35.7367 10.5539C36.4958 9.78679 36.9221 8.74756 36.9221 7.6641ZM66.5858 13.9942L60.1501 7.26923L65.828 1.33742C65.879 1.28403 65.9134 1.21668 65.9267 1.14376C65.94 1.07084 65.9318 0.995575 65.903 0.927353C65.8741 0.859131 65.826 0.800968 65.7646 0.760126C65.7032 0.719284 65.6313 0.697569 65.5577 0.697683H62.5246C62.4582 0.697701 62.3925 0.711139 62.3314 0.737204C62.2703 0.763268 62.215 0.801431 62.1688 0.849428L56.3524 6.92263C56.2641 7.01541 56.2148 7.13897 56.2148 7.2675C56.2148 7.39603 56.2641 7.51959 56.3524 7.61237L62.9249 14.4788C62.971 14.527 63.0263 14.5654 63.0874 14.5918C63.1485 14.6182 63.2143 14.6319 63.2807 14.6323H66.3138C66.3874 14.6319 66.4592 14.6098 66.5205 14.5688C66.5817 14.5277 66.6297 14.4694 66.6584 14.4012C66.6872 14.333 66.6955 14.2577 66.6823 14.1848C66.6691 14.1118 66.6349 14.0444 66.5841 13.9908L66.5858 13.9942ZM25.5441 11.4853H19.2316V1.18223C19.2316 1.05418 19.1812 0.931366 19.0913 0.840819C19.0015 0.750272 18.8797 0.699399 18.7526 0.699399H16.6673C16.5402 0.699399 16.4184 0.750272 16.3286 0.840819C16.2387 0.931366 16.1883 1.05418 16.1883 1.18223V11.5043C16.1883 12.3361 16.5161 13.134 17.0997 13.7222C17.6833 14.3104 18.4748 14.6409 19.3 14.6409H25.5441C25.608 14.642 25.6714 14.6303 25.7306 14.6063C25.7899 14.5823 25.8437 14.5466 25.889 14.5012C25.9343 14.4559 25.9701 14.4019 25.9944 14.3423C26.0186 14.2828 26.0307 14.219 26.03 14.1546V11.9664C26.03 11.9025 26.0174 11.8392 25.9929 11.7803C25.9683 11.7213 25.9324 11.6679 25.8872 11.6231C25.842 11.5783 25.7883 11.5431 25.7294 11.5194C25.6705 11.4957 25.6075 11.4842 25.5441 11.4853Z" fill="#878787"/>
<path d="M80.2805 3.53906C81.0925 3.53906 81.8864 3.78178 82.5615 4.23652C83.2367 4.69126 83.7629 5.33761 84.0737 6.09381C84.3844 6.85002 84.4657 7.68213 84.3073 8.48491C84.1489 9.2877 83.7579 10.0251 83.1837 10.6039C82.6095 11.1827 81.8779 11.5768 81.0815 11.7365C80.2851 11.8962 79.4595 11.8142 78.7093 11.501C77.9591 11.1877 77.3179 10.6573 76.8667 9.97674C76.4156 9.29618 76.1748 8.49605 76.1748 7.67753C76.1748 6.57994 76.6074 5.5273 77.3773 4.75119C78.1473 3.97508 79.1916 3.53906 80.2805 3.53906ZM80.2805 4.80992C79.7195 4.80992 79.1712 4.9776 78.7047 5.29175C78.2383 5.6059 77.8747 6.05241 77.6601 6.57482C77.4454 7.09723 77.3892 7.67209 77.4987 8.22668C77.6081 8.78127 77.8782 9.29069 78.2749 9.69053C78.6716 10.0904 79.177 10.3627 79.7272 10.473C80.2774 10.5833 80.8477 10.5267 81.3659 10.3103C81.8842 10.0939 82.3272 9.72745 82.6389 9.25729C82.9505 8.78713 83.1169 8.23437 83.1169 7.66891C83.1169 6.91066 82.818 6.18347 82.2861 5.6473C81.7542 5.11114 81.0328 4.80992 80.2805 4.80992Z" fill="#878787"/>
<path d="M86.7166 3.68962H85.4404V11.6493H86.6995C86.6995 11.6493 86.6995 10.4008 86.6995 8.8903L89.9499 11.6493H91.7615L89.1356 9.30242C89.5446 9.19367 89.925 8.99555 90.2496 8.7221C90.5742 8.44864 90.8352 8.10654 91.014 7.72006C91.1928 7.33358 91.2851 6.91218 91.2843 6.48574C91.2835 6.0593 91.1897 5.63826 91.0094 5.25247C90.8291 4.86668 90.5669 4.52557 90.2412 4.25336C89.9155 3.98115 89.5345 3.78448 89.125 3.6773C88.7155 3.57012 88.2876 3.55506 87.8717 3.63318C87.4558 3.7113 87.062 3.88068 86.7183 4.12933L86.7166 3.68962ZM88.3777 4.82598C88.7025 4.82598 89.02 4.92306 89.2901 5.10495C89.5602 5.28685 89.7707 5.54539 89.895 5.84787C90.0193 6.15035 90.0518 6.4832 89.9885 6.80431C89.9251 7.12542 89.7687 7.42038 89.539 7.65189C89.3093 7.8834 89.0167 8.04106 88.6981 8.10494C88.3795 8.16881 88.0493 8.13603 87.7492 8.01074C87.4492 7.88545 87.1927 7.67328 87.0122 7.40105C86.8318 7.12882 86.7354 6.80876 86.7354 6.48136C86.7354 6.04232 86.9085 5.62127 87.2164 5.31083C87.5244 5.00038 87.9421 4.82598 88.3777 4.82598Z" fill="#878787"/>
<path d="M74.8649 3.68945C74.8649 3.71359 73.6417 7.21233 72.824 9.56263C72.0508 7.46753 70.9747 4.54301 70.973 4.51887L70.3264 6.6864C70.3264 6.70709 69.8251 8.16417 69.3684 9.49538C68.513 7.14507 67.2813 3.71532 67.2796 3.69118H65.7861L68.6464 11.5905C68.6328 11.6284 68.6259 11.6508 68.6259 11.6508H70.1673L71.0808 9.00567L72.0388 11.6508H73.5955L76.3789 3.69118L74.8649 3.68945Z" fill="#878787"/>
<path d="M95.2612 7.38994L98.8041 3.68945H97.1499L94.1031 6.87263V3.81016C94.1022 3.77025 94.1086 3.73051 94.1219 3.69291H92.8457V3.81016V11.6526H94.1065V8.15383H94.1835L97.5279 11.6491H99.3396L95.2612 7.38994Z" fill="#878787"/>
</svg>
