<?xml version="1.0" encoding="UTF-8"?>
<svg id="Layer_2" data-name="Layer 2" xmlns="http://www.w3.org/2000/svg" viewBox="0 0 710.52 106.95">
  <defs>
    <style>
      .cls-1 {
        fill: #18a48c;
      }
    </style>
  </defs>
  <g id="Layer_1-2" data-name="Layer 1">
    <g>
      <g>
        <path class="cls-1" d="M614.73,54.36v21.27c3.04,2.34,6.4,4.21,10.01,5.53v-15.66c-4.25-2.59-7.75-6.46-10.01-11.14Z"/>
        <path class="cls-1" d="M612.38,17.04c0-.68,0-1.36,0-2.04,0-1.55,0-3.11,0-4.66,0-2.97,0-5.93,0-8.9,0-.22,0-.45-.02-.67,0-.13-.11-.26-.22-.27-.19,0-.38-.02-.57-.02-2.27.01-1.5.02-3.76.03-1.27,0-2.55.01-3.82.02-.16,0-.32,0-.48.02-.09.01-.19.05-.25.11-.12.11-.22.23-.32.35-.95,1.17-2.04,2.2-3.21,3.13-1.4,1.11-2.9,2.08-4.48,2.92-3.33,1.79-6.85,3.08-10.52,4-.25.06-.5.12-.74.19-.15.04-.22.13-.23.26,0,.19-.02.38-.02.57,0,3.8,0,7.59,0,11.39,0,.19.02.38.04.57,0,.05.08.11.13.12.12.02.25.01.38,0,1.92-.12,3.79-.48,5.65-.93,2.42-.58,4.79-1.33,7.12-2.21.18-.07.36-.13.54-.2.18-.06.34.02.34.19,0,.61.02,1.21.02,1.82,0,9.19,0,18.37,0,27.56h0c0,2.04,0,4.08,0,6.12,0,7.49,0,14.99,0,22.48,0,.29,0,.57.01.86,0,.18.12.31.29.32.25,0,.51.01.77.01,2.92,0,5.84,0,8.76,0,2.18,0,1.33,0,3.51,0,1.2,0,1.05.12,1.06-1.08,0-4.18,0-8.36,0-12.53,0-.26,0-.52,0-.77,0-.76,0-1.53,0-2.29,0,0,0-.01,0-.02V17.1s0-.04,0-.06Z"/>
        <path class="cls-1" d="M637.05,14.64c13.86,0,25.14,12.16,25.14,27.11,0,4.02-.82,7.84-2.29,11.28h14.15c.94-3.59,1.45-7.36,1.45-11.28,0-22.86-17.25-41.46-38.45-41.46-8.31,0-16.02,2.87-22.31,7.72v21.27c4.19-8.69,12.62-14.63,22.31-14.63Z"/>
      </g>
      <g>
        <g>
          <path class="cls-1" d="M469.24,59.96l2.45,12.4s1.49-5.41,2.22-7.89c.23-.8.3-1.59.3-2.06,0-.56-.07-1.16-.26-1.89l3.75-.73c.23.93.33,1.72.33,2.55,0,.99-.26,2.26-.86,3.98-.96,2.79-3.38,9.88-3.38,9.88h-4.84l-1.66-8.06-4.25,8.06h-4.61c-.03-6.8-.17-10.68-1.19-15.69l3.78-.6c.73,3.48.93,7.36.66,12.11l4.58-8.86-.56-2.65,3.55-.56Z"/>
          <path class="cls-1" d="M483.3,71.5c-.17.93-.2,1.72,1.26,1.72,1.72,0,4.11-.8,6.2-1.86l.86,3.05c-1.96,1.19-4.94,2.12-7.63,2.12-4.28,0-5.14-2.39-4.54-5.77l.86-4.91c.7-3.81,2.49-6.14,7.36-6.14,3.08,0,5.17,1.59,5.17,4.21,0,2.89-1.89,4.54-6.3,5.9-1.96.6-2.35.7-3.12.9l-.13.76ZM489.04,64.1c0-.73-.63-1.26-1.69-1.26-1.82,0-2.72,1.13-2.98,2.65l-.3,1.66c.56-.17.8-.23,2.42-.73,1.79-.56,2.55-1.26,2.55-2.32Z"/>
          <path class="cls-1" d="M503.9,76.21l-2.32-15.75,3.95-.56,1.53,12.8,3.81-8.59c.36-.86.46-1.56.46-2.22,0-.53-.07-.99-.23-1.53l3.88-.56c.2.63.3,1.43.3,2.02,0,.8-.1,1.92-.56,2.89l-5.34,11.51h-5.47Z"/>
          <path class="cls-1" d="M528.57,76.21h-3.35l-.03-1.79c-1.39,1.26-3.12,2.12-5.27,2.12-2.79,0-3.75-1.49-3.75-3.68,0-.53.07-1.09.17-1.69l.83-4.71c.76-4.38,1.79-6.73,8.03-6.73,1.56,0,4.44.5,6.1,1.03l-2.72,15.45ZM526.88,63.31c-.73-.13-1.46-.23-2.29-.23-2.55,0-3.05,1.06-3.42,3.18l-.99,5.67c-.03.2-.03.3-.03.4,0,.6.36.86,1.09.86,1.26,0,3.08-1.19,4.31-2.42l1.33-7.46Z"/>
          <path class="cls-1" d="M536.73,53.46l4.08-.56-4.11,23.31h-3.98l4.01-22.75Z"/>
          <path class="cls-1" d="M545.65,71.57c-.03.23-.03.36-.03.43,0,.43.2.7.83.7,1.06,0,3.32-.99,4.81-1.89l1.82-10.45,4.08-.56-2.89,16.42h-3.38l.07-1.69c-2.12,1.16-4.64,2.02-6.53,2.02-2.22,0-2.95-1.46-2.95-3.22,0-.63.07-1.06.17-1.59l1.99-11.38,4.08-.56-2.06,11.77Z"/>
          <path class="cls-1" d="M562.74,71.5c-.17.93-.2,1.72,1.26,1.72,1.72,0,4.11-.8,6.2-1.86l.86,3.05c-1.96,1.19-4.94,2.12-7.63,2.12-4.28,0-5.14-2.39-4.54-5.77l.86-4.91c.7-3.81,2.49-6.14,7.36-6.14,3.08,0,5.17,1.59,5.17,4.21,0,2.89-1.89,4.54-6.3,5.9-1.96.6-2.35.7-3.12.9l-.13.76ZM568.47,64.1c0-.73-.63-1.26-1.69-1.26-1.82,0-2.72,1.13-2.98,2.65l-.3,1.66c.56-.17.8-.23,2.42-.73,1.79-.56,2.55-1.26,2.55-2.32Z"/>
        </g>
        <g>
          <rect class="cls-1" x="286.51" y="13.23" width="1.19" height="23.45"/>
          <g>
            <g>
              <polygon class="cls-1" points="216.52 11.75 219.65 8.63 216.52 5.51 213.41 8.63 216.52 11.75"/>
              <polygon class="cls-1" points="220.72 8.63 223.84 5.51 226.97 8.63 223.84 11.75 220.72 8.63"/>
              <polygon class="cls-1" points="209.08 8.63 188.86 8.63 188.86 13.8 195.99 13.8 195.99 36.11 201.94 36.11 201.94 13.8 209.08 13.8 209.08 8.63"/>
              <path class="cls-1" d="M249.77,29.56h3.79v-15.76h-19.16v22.31h5.95v-6.55h2.49l4.7,6.55h6.91l-4.68-6.55ZM247.61,24.39h-7.25v-5.41h7.25v5.41Z"/>
              <path class="cls-1" d="M258.17,36.11h5.94v-8.74h4.53c2.49,0,3.92.03,3.92,2.55v6.19h5.95v-6.3c0-4.41-.65-6.72-5.84-7.4l6.17-8.61h-6.94l-6,8.39h-1.79v-8.39h-5.94v22.31Z"/>
              <path class="cls-1" d="M223.84,28.29v-14.49h5.96v14.87c0,5.95-2.81,7.61-9.34,7.61-8.93,0-9.88-2.26-9.88-7.61v-14.87h5.94v14.75c0,2.53,1.43,2.56,3.94,2.56s3.38-.21,3.38-2.82Z"/>
              <path class="cls-1" d="M157.19,22.34c-2.5,0-3.93-.02-3.93-2.55v-5.98h-5.95v6.11c0,4.62.71,6.94,6.63,7.48v8.72h5.95v-8.71c4.62-.48,6.63-2.44,6.63-7.49v-6.11h-5.94v5.71c0,2.62-.86,2.82-3.39,2.82Z"/>
              <polygon class="cls-1" points="143.57 18.68 133.43 18.68 133.43 22.49 142.94 22.49 142.94 27.37 133.43 27.37 133.43 31.24 143.77 31.24 143.77 36.11 127.48 36.11 127.48 13.8 143.57 13.8 143.57 18.68"/>
              <polygon class="cls-1" points="93.09 31.24 85.78 31.24 85.78 13.8 79.83 13.8 79.83 36.11 99.05 36.11 99.05 13.8 93.09 13.8 93.09 31.24"/>
              <polygon class="cls-1" points="187.35 18.98 181.65 18.98 181.65 36.11 175.7 36.11 175.7 18.98 169.99 18.98 169.99 13.8 187.35 13.8 187.35 18.98"/>
              <path class="cls-1" d="M54.87,36.29h5.95v-11.33h4.52c2.5,0,3.93.04,3.93,2.56v8.77h5.95v-8.89c0-4.44-.66-6.75-5.97-7.42l6.35-11.18h-6.9l-6.23,10.98h-1.66v-10.98h-5.95v27.49Z"/>
              <path class="cls-1" d="M109.59,13.8v9.07c0,3.12.76,5.06,2.8,7.23l.87.92.91-.92c2-2.14,2.74-4.17,2.74-7.23v-9.07h5.95v9.07c0,7.81-4.02,10.82-6.31,13.24h-6.6c-2.28-2.41-6.3-5.42-6.3-13.24v-9.07h5.94Z"/>
            </g>
            <g>
              <path class="cls-1" d="M21.54,41.87l-2.16,1.35-1.43-3.46,3.59,2.11ZM18.09,32.37l3.47,2.15-2.05,1.39-1.42-3.54ZM17.98,24.91l3.64,2.19-2.13,1.54-1.5-3.74ZM23.75,30.91l3.55-2.21-1.38,3.62-2.18-1.41ZM18.04,36.07l6.66,4.04-2.02,1.31-3.46-1.94-1.19-3.4ZM20.65,36.3l6.59-3.99-1.06,3.2-3.43,2.32-2.1-1.54ZM18.04,28.78l6.72,3.85-2.21,1.51-3.35-2.03-1.15-3.34ZM20.55,29.01l6.69-4.03-1.21,3.45-3.26,1.97-2.22-1.39ZM20.35,25.16h4.47l-2.12,1.68-2.34-1.68ZM23.75,38.09l3.55-2.2-1.38,3.62-2.18-1.42ZM22.57,22.63s-3.59-10.38-4.28-12.46c-.28-.85-.4-1.57.14-2.28l4.14-5.42,4.13,5.42c.54.71.42,1.43.15,2.28-.68,2.08-4.27,12.46-4.27,12.46ZM42.91,23.82h-19.08s8.69-4.47,8.69-4.47c4.84-2.5,6.45-.41,8.22,1.79l2.16,2.68ZM23.41,22.86l5.99-10.75c.78-1.39,2.77-2.09,4.51-1.04l6.74,4.05h-3.38c-1.48.01-2.66.58-3.74,1.27l-10.12,6.47ZM2.22,23.82l2.17-2.68c1.77-2.2,3.37-4.28,8.22-1.79l8.69,4.47H2.22ZM21.72,22.86l-10.11-6.47c-1.07-.69-2.26-1.26-3.75-1.26h-3.38s6.74-4.06,6.74-4.06c1.74-1.05,3.73-.35,4.51,1.04l5.99,10.75ZM20.26,43.94l6.98-4.13-1.33,4.01c-1.07.16-2.16.24-3.28.24-.8,0-1.59-.04-2.37-.13Z"/>
              <path class="cls-1" d="M22.57,0C10.1,0,0,10.1,0,22.57s10.1,22.57,22.57,22.57,22.57-10.1,22.57-22.57S35.03,0,22.57,0ZM22.57,44.06c-11.86,0-21.49-9.62-21.49-21.49S10.7,1.07,22.57,1.07s21.5,9.63,21.5,21.49-9.63,21.49-21.5,21.49Z"/>
            </g>
          </g>
          <g>
            <path class="cls-1" d="M310.46,31.47h-8.46l-1.44,4.73h-4.52l7.19-22.81h6.03l7.19,22.81h-4.52l-1.47-4.73ZM303.06,27.73h6.3l-3.12-10.79-3.19,10.79Z"/>
            <path class="cls-1" d="M324.89,36.54c-1.78,0-4.21-.41-5.75-.96l.58-3.19c1.4.41,3.25.72,4.97.72,1.85,0,2.12-.41,2.12-1.68,0-1.03-.21-1.54-2.91-2.19-4.08-.99-4.56-2.02-4.56-5.24s1.47-4.83,6.23-4.83c1.54,0,3.56.21,5,.58l-.41,3.32c-1.27-.24-3.29-.48-4.59-.48-1.82,0-2.12.41-2.12,1.44,0,1.34.1,1.44,2.36,2.02,4.66,1.23,5.1,1.85,5.1,5.28,0,3.22-.99,5.21-6.03,5.21Z"/>
            <path class="cls-1" d="M340.2,36.54c-1.78,0-4.21-.41-5.75-.96l.58-3.19c1.4.41,3.25.72,4.97.72,1.85,0,2.12-.41,2.12-1.68,0-1.03-.21-1.54-2.91-2.19-4.08-.99-4.56-2.02-4.56-5.24s1.47-4.83,6.23-4.83c1.54,0,3.56.21,5,.58l-.41,3.32c-1.27-.24-3.29-.48-4.59-.48-1.82,0-2.12.41-2.12,1.44,0,1.34.1,1.44,2.36,2.02,4.66,1.23,5.1,1.85,5.1,5.28,0,3.22-.99,5.21-6.03,5.21Z"/>
            <path class="cls-1" d="M357.03,33.11c1.61,0,3.29-.24,5.1-.79l.65,3.15c-1.88.72-4.15,1.06-6.13,1.06-5.24,0-7.06-2.43-7.06-6.44v-4.42c0-3.53,1.58-6.51,6.92-6.51s6.54,3.12,6.54,6.71v3.56h-9.28v.86c0,2.02.72,2.81,3.25,2.81ZM353.77,26.09h5.31v-.82c0-1.58-.48-2.67-2.54-2.67s-2.77,1.1-2.77,2.67v.82Z"/>
            <path class="cls-1" d="M375.7,35.89c-.89.38-2.6.65-3.67.65-3.05,0-4.59-1.44-4.59-4.42v-9.28h-2.5v-3.32h2.5v-4.14l4.18-.58v4.73h4.28l-.27,3.32h-4.01v8.74c0,.89.41,1.47,1.51,1.47.62,0,1.37-.14,2.09-.34l.48,3.19Z"/>
            <path class="cls-1" d="M400.5,33.25h-5.48l-4.21-11.82-.38,14.76h-4.42l1.03-22.81h4.83l5.89,16.2,5.89-16.2h4.83l1.03,22.81h-4.42l-.38-14.76-4.21,11.82Z"/>
            <path class="cls-1" d="M426.33,36.19h-3.43l-.31-1.13c-1.51.99-3.29,1.47-4.97,1.47-3.05,0-4.35-2.09-4.35-4.97,0-3.39,1.47-4.69,4.86-4.69h4.01v-1.75c0-1.85-.51-2.5-3.19-2.5-1.51,0-3.15.21-4.62.51l-.51-3.19c1.58-.48,3.87-.79,5.72-.79,5.24,0,6.78,1.85,6.78,6.03v11ZM422.16,29.89h-3.08c-1.37,0-1.75.38-1.75,1.64,0,1.16.38,1.68,1.68,1.68,1.23,0,2.36-.41,3.15-.86v-2.47Z"/>
            <path class="cls-1" d="M440.66,36.19v-11.65c0-.89-.38-1.34-1.34-1.34-1.03,0-2.84.62-4.35,1.4v11.58h-4.18v-16.68h3.19l.41,1.4c2.09-1.03,4.73-1.75,6.68-1.75,2.77,0,3.77,1.95,3.77,4.93v12.09h-4.18Z"/>
            <path class="cls-1" d="M461.83,36.19h-3.43l-.31-1.13c-1.51.99-3.29,1.47-4.97,1.47-3.05,0-4.35-2.09-4.35-4.97,0-3.39,1.47-4.69,4.86-4.69h4.01v-1.75c0-1.85-.51-2.5-3.19-2.5-1.51,0-3.15.21-4.62.51l-.51-3.19c1.58-.48,3.87-.79,5.72-.79,5.24,0,6.78,1.85,6.78,6.03v11ZM457.65,29.89h-3.08c-1.37,0-1.75.38-1.75,1.64,0,1.16.38,1.68,1.68,1.68,1.23,0,2.36-.41,3.15-.86v-2.47Z"/>
            <path class="cls-1" d="M471.01,31.71c-.55.34-.99.82-.99,1.34,0,.45.27.65.92.72,1.85.21,2.88.31,4.83.51,2.71.31,3.56,1.64,3.56,4.04,0,3.56-1.3,4.97-7.54,4.97-1.92,0-4.56-.27-6.44-.86l.51-3.12c1.78.45,3.67.72,5.62.72,3.32,0,3.97-.24,3.97-1.34,0-1.03-.31-1.2-1.58-1.34-1.92-.21-2.71-.31-4.83-.55-2.36-.27-3.29-1.06-3.29-3.19,0-1.37.93-2.26,1.75-2.84-1.54-.92-2.26-2.47-2.26-4.49v-1.58c.07-3.46,1.88-5.55,6.71-5.55,1.13,0,2.02.14,2.84.34h5.14v2.09c-.58.17-1.27.34-1.85.51.38.72.58,1.64.58,2.6v1.58c0,3.39-2.06,5.45-6.71,5.45-.34,0-.65,0-.96-.03ZM471.97,22.53c-2.06,0-2.77.75-2.77,2.33v1.27c0,1.64.82,2.26,2.77,2.26s2.81-.65,2.81-2.26v-1.27c0-1.58-.72-2.33-2.81-2.33Z"/>
            <path class="cls-1" d="M489.72,33.11c1.61,0,3.29-.24,5.1-.79l.65,3.15c-1.88.72-4.15,1.06-6.13,1.06-5.24,0-7.06-2.43-7.06-6.44v-4.42c0-3.53,1.58-6.51,6.92-6.51s6.54,3.12,6.54,6.71v3.56h-9.28v.86c0,2.02.72,2.81,3.25,2.81ZM486.46,26.09h5.31v-.82c0-1.58-.48-2.67-2.54-2.67s-2.77,1.1-2.77,2.67v.82Z"/>
            <path class="cls-1" d="M509.38,36.19v-11.65c0-.89-.38-1.34-1.34-1.34-1.03,0-2.84.62-4.35,1.4v11.58h-4.18v-16.68h3.19l.41,1.4c2.09-1.03,4.73-1.75,6.68-1.75,1.61,0,2.6.65,3.15,1.78,2.02-1.03,4.69-1.78,6.71-1.78,2.77,0,3.77,1.95,3.77,4.93v12.09h-4.18v-11.65c0-.89-.38-1.34-1.34-1.34-1.03,0-3.05.65-4.35,1.4v11.58h-4.18Z"/>
            <path class="cls-1" d="M534.74,33.11c1.61,0,3.29-.24,5.1-.79l.65,3.15c-1.88.72-4.15,1.06-6.13,1.06-5.24,0-7.06-2.43-7.06-6.44v-4.42c0-3.53,1.58-6.51,6.92-6.51s6.54,3.12,6.54,6.71v3.56h-9.28v.86c0,2.02.72,2.81,3.25,2.81ZM531.48,26.09h5.31v-.82c0-1.58-.48-2.67-2.54-2.67s-2.77,1.1-2.77,2.67v.82Z"/>
            <path class="cls-1" d="M554.4,36.19v-11.65c0-.89-.38-1.34-1.34-1.34-1.03,0-2.84.62-4.35,1.4v11.58h-4.18v-16.68h3.19l.41,1.4c2.09-1.03,4.73-1.75,6.68-1.75,2.77,0,3.77,1.95,3.77,4.93v12.09h-4.18Z"/>
            <path class="cls-1" d="M572.08,35.89c-.89.38-2.6.65-3.67.65-3.05,0-4.59-1.44-4.59-4.42v-9.28h-2.5v-3.32h2.5v-4.14l4.18-.58v4.73h4.28l-.27,3.32h-4.01v8.74c0,.89.41,1.47,1.51,1.47.62,0,1.37-.14,2.09-.34l.48,3.19Z"/>
          </g>
        </g>
      </g>
      <g>
        <path class="cls-1" d="M640.24,65c1.31,0,2.79,2.31,2.79,4.31,0,3.26-4.15,8.46-4.15,11.14,0,.21.16.42.37.42,1.1,0,4.42-3.26,6.62-7.57,3.05-5.99,6.68-10.72,7.73-10.72s1.47,1.05,1.47,1.47c0,.37-3.57,2.47-5.99,12.93-2.68,11.56-6.52,29.96-22.08,29.96-3.1,0-5.05-1.42-5.05-2.1,0-.32.26-.63.53-.63.58,0,1.73.84,3.57.84,9.41,0,16.24-17.24,18.98-27.39-2.63,3.26-4.15,5.15-5.99,5.15s-3.79-1.58-3.79-3.68c0-4.21,4.26-9.2,4.26-13.51,0-.42.21-.63.74-.63Z"/>
        <path class="cls-1" d="M659.48,82.82c-3.26,0-6.36-2-6.36-6.15,0-6.62,6.41-11.72,10.15-11.72,1.31,0,3.1,1.84,3.1,3.42-.05,3.42-3.89,7.25-6.68,7.25-.63,0-1.68-.58-1.68-.58,0,0-.68,1.42-.68,3.63,0,1.58.58,2.1,1.26,2.1,3.58,0,8.25-5.47,10.83-9.09.21-.26.32-.42.47-.42.47,0,.89.58.89.95,0,.32-.16.63-.42,1.05-1.94,2.84-7.41,9.57-10.88,9.57ZM658.69,73.36c1.37,0,5.62-4.1,5.73-5.52,0-.21-.11-.37-.26-.37-.58,0-2.84,1.26-5.47,5.89Z"/>
        <path class="cls-1" d="M681.35,80.66c-2.37,0-3.68-2.68-3.68-3.89-.79,0-4.15,7.04-7.25,7.04-1.63,0-4-1.1-4-4.99,0-5.89,7.2-13.4,14.3-13.4,1.52,0,2.84,1.52,2.84,2.26s-1.26.26-3.47,1.21c-5.2,2.21-9.62,9.93-9.62,11.88,0,.32.16.47.37.47,1.26,0,6.89-7.25,8.36-9.3.68-1,1.26-1.73,1.84-1.73,1.1,0,2.1,1.21,2.1,2.26,0,2.26-2.63,4.42-2.63,5.41,0,.37.16.53.37.53,1.37,0,4.73-4.47,6.41-6.73.21-.26.32-.42.47-.42.47,0,.89.58.89.95,0,.32-.16.63-.42,1.05-.74,1.1-4.84,7.41-6.89,7.41Z"/>
        <path class="cls-1" d="M687.39,74.2c-.26,0-1.05-.47-1.05-1,0-.21.26-.58.58-1.05,2.05-3.05,3.63-5.89,3.63-5.89-.47-.63-1.31-2.1-1.31-3.05,0-2.63,2.47-5.62,3.73-5.62.95,0,1.68,1,1.68,2,0,1.52-1.31,3.89-2.05,5.15,0,1.68,4.1,4.1,4.1,6.52,0,2.58-2.63,5.94-2.63,9.25,0,.53.32.79.63.79,1.63,0,6.94-6.99,8.83-9.62.21-.26.32-.42.47-.42.47,0,.89.58.89.95,0,.32-.16.63-.42,1.05-1.79,2.63-6.89,10.36-10.36,10.36-2.94,0-5.15-2.26-5.15-4.63,0-4.36,4.31-7.36,4.31-9.83,0-.68-.16-.74-1.37-1.68,0,0-1.37,2.31-3.94,6.2-.21.32-.37.53-.58.53Z"/>
        <path class="cls-1" d="M710.52,65.84c0,1.05-3.89,2.16-3.89,7.57,0,2.73,2.26,4.63,2.26,7.57,0,4.89-7.2,8.41-10.25,8.41-1.16,0-1.73-.47-1.73-.89,0-.21.11-.32.47-.37,1.68-.26,6.73-1.73,6.73-9.83,0-2.94-.74-4.99-.74-7.36,0-3.94,3.68-6.68,5.2-6.68,1.1,0,1.94.68,1.94,1.58Z"/>
      </g>
    </g>
  </g>
</svg>