<?xml version="1.0" encoding="UTF-8"?>
<svg id="Layer_2" data-name="Layer 2" xmlns="http://www.w3.org/2000/svg" viewBox="0 0 776.47 103.85">
  <defs>
    <style>
      .cls-1 {
        fill: #18a48c;
      }
    </style>
  </defs>
  <g id="Layer_1-2" data-name="Layer 1">
    <g>
      <g>
        <path class="cls-1" d="M636.66,81.35l3.33,16.83s2.03-7.33,3.02-10.71c.31-1.08.4-2.16.4-2.79,0-.76-.09-1.57-.36-2.56l5.08-.99c.31,1.26.45,2.34.45,3.46,0,1.35-.36,3.06-1.17,5.4-1.3,3.78-4.59,13.41-4.59,13.41h-6.57l-2.25-10.93-5.76,10.93h-6.25c-.04-9.22-.22-14.49-1.62-21.28l5.13-.81c.99,4.72,1.26,9.99.9,16.42l6.21-12.01-.77-3.6,4.82-.76Z"/>
        <path class="cls-1" d="M655.74,97.01c-.23,1.26-.27,2.34,1.71,2.34,2.34,0,5.58-1.08,8.41-2.52l1.17,4.14c-2.65,1.62-6.7,2.88-10.35,2.88-5.8,0-6.97-3.24-6.16-7.83l1.17-6.66c.94-5.17,3.38-8.32,9.99-8.32,4.18,0,7.02,2.16,7.02,5.71,0,3.91-2.56,6.16-8.55,8.01-2.65.81-3.19.95-4.23,1.22l-.18,1.03ZM663.52,86.98c0-.99-.85-1.71-2.29-1.71-2.47,0-3.69,1.53-4.05,3.6l-.4,2.25c.76-.23,1.08-.31,3.28-.99,2.43-.76,3.46-1.71,3.46-3.15Z"/>
        <path class="cls-1" d="M683.68,103.4l-3.15-21.37,5.35-.77,2.07,17.37,5.17-11.65c.5-1.17.63-2.11.63-3.01,0-.72-.09-1.35-.31-2.07l5.26-.76c.27.85.4,1.93.4,2.74,0,1.08-.13,2.61-.76,3.91l-7.25,15.61h-7.42Z"/>
        <path class="cls-1" d="M717.16,103.4h-4.54l-.04-2.43c-1.89,1.71-4.23,2.88-7.16,2.88-3.78,0-5.08-2.02-5.08-4.99,0-.72.09-1.49.22-2.29l1.12-6.39c1.04-5.94,2.43-9.13,10.89-9.13,2.11,0,6.03.68,8.28,1.4l-3.69,20.97ZM714.87,85.9c-.99-.18-1.98-.32-3.11-.32-3.46,0-4.14,1.44-4.63,4.32l-1.35,7.69c-.04.27-.04.41-.04.54,0,.81.5,1.17,1.48,1.17,1.71,0,4.19-1.62,5.85-3.28l1.8-10.12Z"/>
        <path class="cls-1" d="M728.23,72.53l5.54-.76-5.58,31.63h-5.4l5.44-30.87Z"/>
        <path class="cls-1" d="M740.34,97.1c-.04.32-.04.5-.04.59,0,.58.27.94,1.12.94,1.44,0,4.5-1.35,6.52-2.56l2.47-14.17,5.54-.76-3.92,22.27h-4.59l.09-2.29c-2.88,1.57-6.3,2.74-8.86,2.74-3.01,0-4-1.98-4-4.36,0-.85.09-1.44.22-2.16l2.7-15.43,5.54-.76-2.79,15.97Z"/>
        <path class="cls-1" d="M763.51,97.01c-.23,1.26-.27,2.34,1.71,2.34,2.34,0,5.58-1.08,8.41-2.52l1.17,4.14c-2.65,1.62-6.7,2.88-10.35,2.88-5.8,0-6.97-3.24-6.16-7.83l1.17-6.66c.94-5.17,3.38-8.32,9.99-8.32,4.18,0,7.02,2.16,7.02,5.71,0,3.91-2.56,6.16-8.55,8.01-2.65.81-3.19.95-4.23,1.22l-.18,1.03ZM771.3,86.98c0-.99-.85-1.71-2.29-1.71-2.47,0-3.69,1.53-4.05,3.6l-.4,2.25c.76-.23,1.08-.31,3.28-.99,2.43-.76,3.46-1.71,3.46-3.15Z"/>
      </g>
      <g>
        <rect class="cls-1" x="388.73" y="17.96" width="1.62" height="31.81"/>
        <g>
          <g>
            <polygon class="cls-1" points="293.78 15.94 298.02 11.7 293.78 7.47 289.56 11.7 293.78 15.94"/>
            <polygon class="cls-1" points="299.48 11.7 303.71 7.47 307.95 11.7 303.71 15.94 299.48 11.7"/>
            <polygon class="cls-1" points="283.68 11.7 256.24 11.7 256.24 18.73 265.92 18.73 265.92 49 273.99 49 273.99 18.73 283.68 18.73 283.68 11.7"/>
            <path class="cls-1" d="M338.89,40.11h5.14v-21.38h-25.99v30.27h8.07v-8.89h3.37l6.38,8.89h9.38l-6.35-8.89ZM335.95,33.09h-9.84v-7.33h9.84v7.33Z"/>
            <path class="cls-1" d="M350.29,49h8.06v-11.86h6.15c3.38,0,5.32.04,5.32,3.46v8.4h8.08v-8.55c0-5.98-.88-9.11-7.93-10.04l8.37-11.68h-9.42l-8.14,11.38h-2.43v-11.38h-8.06v30.27Z"/>
            <path class="cls-1" d="M303.71,38.39v-19.66h8.09v20.18c0,8.07-3.81,10.33-12.67,10.33-12.12,0-13.41-3.06-13.41-10.33v-20.18h8.06v20.02c0,3.44,1.94,3.47,5.35,3.47s4.59-.29,4.59-3.83Z"/>
            <path class="cls-1" d="M213.27,30.31c-3.39,0-5.33-.02-5.33-3.46v-8.12h-8.07v8.29c0,6.27.96,9.41,9,10.15v11.83h8.07v-11.82c6.26-.65,9-3.32,9-10.16v-8.29h-8.06v7.75c0,3.55-1.17,3.83-4.6,3.83Z"/>
            <polygon class="cls-1" points="194.79 25.34 181.04 25.34 181.04 30.51 193.94 30.51 193.94 37.14 181.04 37.14 181.04 42.38 195.07 42.38 195.07 49 172.96 49 172.96 18.73 194.79 18.73 194.79 25.34"/>
            <polygon class="cls-1" points="126.31 42.38 116.39 42.38 116.39 18.73 108.31 18.73 108.31 49 134.39 49 134.39 18.73 126.31 18.73 126.31 42.38"/>
            <polygon class="cls-1" points="254.2 25.75 246.46 25.75 246.46 49 238.38 49 238.38 25.75 230.64 25.75 230.64 18.73 254.2 18.73 254.2 25.75"/>
            <path class="cls-1" d="M74.45,49.24h8.07v-15.38h6.14c3.39,0,5.33.05,5.33,3.48v11.9h8.08v-12.06c0-6.03-.89-9.16-8.09-10.06l8.62-15.17h-9.36l-8.46,14.9h-2.25v-14.9h-8.07v37.29Z"/>
            <path class="cls-1" d="M148.7,18.73v12.31c0,4.24,1.03,6.86,3.79,9.81l1.18,1.24,1.24-1.24c2.72-2.91,3.72-5.66,3.72-9.81v-12.31h8.07v12.31c0,10.6-5.45,14.69-8.56,17.96h-8.95c-3.1-3.27-8.55-7.36-8.55-17.96v-12.31h8.06Z"/>
          </g>
          <g>
            <path class="cls-1" d="M29.23,56.8l-2.93,1.83-1.94-4.7,4.87,2.87ZM24.55,43.92l4.71,2.91-2.78,1.88-1.92-4.8ZM24.4,33.8l4.93,2.98-2.89,2.09-2.04-5.07ZM32.22,41.94l4.82-3-1.87,4.91-2.95-1.92ZM24.48,48.93l9.04,5.48-2.74,1.78-4.69-2.64-1.62-4.62ZM28.01,49.25l8.94-5.41-1.44,4.35-4.65,3.15-2.85-2.09ZM24.48,39.05l9.11,5.23-3,2.05-4.55-2.75-1.56-4.53ZM27.88,39.37l9.08-5.46-1.64,4.67-4.42,2.67-3.02-1.88ZM27.6,34.14h6.06l-2.88,2.28-3.18-2.28ZM32.22,51.68l4.82-2.99-1.87,4.91-2.95-1.92ZM30.62,30.7s-4.88-14.08-5.8-16.9c-.38-1.15-.54-2.13.19-3.1l5.61-7.35,5.6,7.35c.73.96.58,1.94.2,3.1-.93,2.82-5.8,16.9-5.8,16.9ZM58.22,32.31h-25.88s11.79-6.06,11.79-6.06c6.57-3.39,8.75-.56,11.16,2.43l2.93,3.64ZM31.76,31.02l8.13-14.58c1.05-1.89,3.75-2.83,6.11-1.41l9.14,5.49-4.59.02c-2.01,0-3.61.77-5.07,1.7l-13.72,8.78ZM3.01,32.31l2.94-3.64c2.4-2.98,4.58-5.81,11.15-2.43l11.79,6.07H3.01ZM29.47,31.02l-13.72-8.78c-1.46-.93-3.06-1.7-5.08-1.7l-4.58-.02,9.14-5.49c2.36-1.42,5.06-.47,6.12,1.41l8.13,14.58ZM27.48,59.61l9.47-5.6-1.81,5.44c-1.45.21-2.93.33-4.45.33-1.09,0-2.16-.06-3.22-.17Z"/>
            <path class="cls-1" d="M30.62,0C13.71,0,0,13.71,0,30.62s13.71,30.62,30.62,30.62,30.62-13.71,30.62-30.62S47.53,0,30.62,0ZM30.62,59.78C14.52,59.78,1.46,46.72,1.46,30.62S14.52,1.45,30.62,1.45s29.17,13.06,29.17,29.16-13.06,29.16-29.17,29.16Z"/>
          </g>
        </g>
        <g>
          <path class="cls-1" d="M421.23,42.69h-11.48l-1.95,6.41h-6.14l9.76-30.95h8.18l9.76,30.95h-6.14l-2-6.41ZM411.2,37.63h8.55l-4.23-14.64-4.32,14.64Z"/>
          <path class="cls-1" d="M440.81,49.57c-2.42,0-5.72-.56-7.81-1.3l.79-4.32c1.91.56,4.41.98,6.74.98,2.51,0,2.88-.56,2.88-2.28,0-1.39-.28-2.09-3.95-2.97-5.53-1.35-6.18-2.74-6.18-7.11s2-6.55,8.46-6.55c2.09,0,4.83.28,6.79.79l-.56,4.51c-1.72-.33-4.46-.65-6.23-.65-2.46,0-2.88.56-2.88,1.95,0,1.81.14,1.95,3.21,2.74,6.32,1.67,6.93,2.51,6.93,7.16,0,4.37-1.35,7.06-8.18,7.06Z"/>
          <path class="cls-1" d="M461.59,49.57c-2.42,0-5.72-.56-7.81-1.3l.79-4.32c1.91.56,4.41.98,6.74.98,2.51,0,2.88-.56,2.88-2.28,0-1.39-.28-2.09-3.95-2.97-5.53-1.35-6.18-2.74-6.18-7.11s2-6.55,8.46-6.55c2.09,0,4.83.28,6.79.79l-.56,4.51c-1.72-.33-4.46-.65-6.23-.65-2.46,0-2.88.56-2.88,1.95,0,1.81.14,1.95,3.21,2.74,6.32,1.67,6.93,2.51,6.93,7.16,0,4.37-1.35,7.06-8.18,7.06Z"/>
          <path class="cls-1" d="M484.41,44.93c2.18,0,4.46-.33,6.93-1.07l.88,4.28c-2.56.98-5.62,1.44-8.32,1.44-7.11,0-9.57-3.3-9.57-8.74v-6c0-4.79,2.14-8.83,9.39-8.83s8.88,4.23,8.88,9.11v4.83h-12.6v1.16c0,2.74.98,3.81,4.42,3.81ZM479.99,35.4h7.2v-1.12c0-2.14-.65-3.63-3.44-3.63s-3.76,1.49-3.76,3.63v1.12Z"/>
          <path class="cls-1" d="M509.74,48.69c-1.21.51-3.53.88-4.97.88-4.14,0-6.23-1.95-6.23-6v-12.6h-3.39v-4.51h3.39v-5.62l5.67-.79v6.41h5.81l-.37,4.51h-5.44v11.85c0,1.21.56,2,2.05,2,.84,0,1.86-.19,2.83-.46l.65,4.32Z"/>
          <path class="cls-1" d="M543.4,45.11h-7.44l-5.72-16.03-.51,20.03h-6l1.39-30.95h6.55l7.99,21.98,7.99-21.98h6.55l1.39,30.95h-6l-.51-20.03-5.72,16.03Z"/>
          <path class="cls-1" d="M578.45,49.11h-4.65l-.42-1.53c-2.05,1.35-4.46,2-6.74,2-4.14,0-5.9-2.83-5.9-6.74,0-4.6,2-6.37,6.6-6.37h5.44v-2.37c0-2.51-.7-3.39-4.32-3.39-2.05,0-4.28.28-6.27.7l-.7-4.32c2.14-.65,5.25-1.07,7.76-1.07,7.11,0,9.2,2.51,9.2,8.18v14.92ZM572.78,40.56h-4.18c-1.86,0-2.37.51-2.37,2.23,0,1.58.51,2.28,2.28,2.28,1.67,0,3.21-.56,4.28-1.16v-3.35Z"/>
          <path class="cls-1" d="M597.88,49.11v-15.8c0-1.21-.51-1.81-1.81-1.81-1.39,0-3.86.84-5.9,1.91v15.71h-5.67v-22.63h4.32l.56,1.91c2.83-1.39,6.41-2.37,9.06-2.37,3.76,0,5.11,2.65,5.11,6.69v16.41h-5.67Z"/>
          <path class="cls-1" d="M626.61,49.11h-4.65l-.42-1.53c-2.05,1.35-4.46,2-6.74,2-4.14,0-5.9-2.83-5.9-6.74,0-4.6,2-6.37,6.6-6.37h5.44v-2.37c0-2.51-.7-3.39-4.32-3.39-2.05,0-4.28.28-6.27.7l-.7-4.32c2.14-.65,5.25-1.07,7.76-1.07,7.11,0,9.2,2.51,9.2,8.18v14.92ZM620.94,40.56h-4.18c-1.86,0-2.37.51-2.37,2.23,0,1.58.51,2.28,2.28,2.28,1.67,0,3.21-.56,4.28-1.16v-3.35Z"/>
          <path class="cls-1" d="M639.07,43.02c-.74.46-1.35,1.12-1.35,1.81,0,.6.37.88,1.25.98,2.51.28,3.9.42,6.55.7,3.67.42,4.83,2.23,4.83,5.48,0,4.83-1.77,6.74-10.23,6.74-2.6,0-6.18-.37-8.74-1.16l.7-4.23c2.42.6,4.97.98,7.62.98,4.51,0,5.39-.33,5.39-1.81,0-1.39-.42-1.63-2.14-1.81-2.6-.28-3.67-.42-6.55-.74-3.21-.37-4.46-1.44-4.46-4.32,0-1.86,1.26-3.07,2.37-3.86-2.09-1.25-3.07-3.35-3.07-6.09v-2.14c.09-4.69,2.56-7.53,9.11-7.53,1.53,0,2.74.19,3.86.46h6.97v2.84c-.79.23-1.72.46-2.51.7.51.98.79,2.23.79,3.53v2.14c0,4.6-2.79,7.39-9.11,7.39-.47,0-.88,0-1.3-.05ZM640.37,30.56c-2.79,0-3.76,1.02-3.76,3.16v1.72c0,2.23,1.12,3.07,3.76,3.07s3.81-.88,3.81-3.07v-1.72c0-2.14-.98-3.16-3.81-3.16Z"/>
          <path class="cls-1" d="M664.45,44.93c2.18,0,4.46-.33,6.93-1.07l.88,4.28c-2.56.98-5.62,1.44-8.32,1.44-7.11,0-9.57-3.3-9.57-8.74v-6c0-4.79,2.14-8.83,9.39-8.83s8.88,4.23,8.88,9.11v4.83h-12.6v1.16c0,2.74.98,3.81,4.42,3.81ZM660.03,35.4h7.2v-1.12c0-2.14-.65-3.63-3.44-3.63s-3.76,1.49-3.76,3.63v1.12Z"/>
          <path class="cls-1" d="M691.13,49.11v-15.8c0-1.21-.51-1.81-1.81-1.81-1.39,0-3.86.84-5.9,1.91v15.71h-5.67v-22.63h4.32l.56,1.91c2.83-1.39,6.41-2.37,9.06-2.37,2.18,0,3.53.88,4.28,2.42,2.74-1.39,6.37-2.42,9.11-2.42,3.76,0,5.11,2.65,5.11,6.69v16.41h-5.67v-15.8c0-1.21-.51-1.81-1.81-1.81-1.39,0-4.14.88-5.9,1.91v15.71h-5.67Z"/>
          <path class="cls-1" d="M725.53,44.93c2.18,0,4.46-.33,6.93-1.07l.88,4.28c-2.56.98-5.62,1.44-8.32,1.44-7.11,0-9.57-3.3-9.57-8.74v-6c0-4.79,2.14-8.83,9.39-8.83s8.88,4.23,8.88,9.11v4.83h-12.6v1.16c0,2.74.98,3.81,4.42,3.81ZM721.11,35.4h7.2v-1.12c0-2.14-.65-3.63-3.44-3.63s-3.76,1.49-3.76,3.63v1.12Z"/>
          <path class="cls-1" d="M752.21,49.11v-15.8c0-1.21-.51-1.81-1.81-1.81-1.39,0-3.86.84-5.9,1.91v15.71h-5.67v-22.63h4.32l.56,1.91c2.83-1.39,6.41-2.37,9.06-2.37,3.76,0,5.11,2.65,5.11,6.69v16.41h-5.67Z"/>
          <path class="cls-1" d="M776.2,48.69c-1.21.51-3.53.88-4.97.88-4.14,0-6.23-1.95-6.23-6v-12.6h-3.39v-4.51h3.39v-5.62l5.67-.79v6.41h5.81l-.37,4.51h-5.44v11.85c0,1.21.56,2,2.05,2,.84,0,1.86-.19,2.83-.46l.65,4.32Z"/>
        </g>
      </g>
    </g>
  </g>
</svg>