<?xml version="1.0" encoding="UTF-8"?>
<svg id="Layer_2" data-name="Layer 2" xmlns="http://www.w3.org/2000/svg" viewBox="0 0 532.91 112.54">
  <defs>
    <style>
      .cls-1 {
        fill: #18a48c;
      }
    </style>
  </defs>
  <g id="Layer_1-2" data-name="Layer 1">
    <g>
      <g>
        <rect class="cls-1" x="386.15" y="17.84" width="1.61" height="31.6"/>
        <g>
          <path class="cls-1" d="M398.52,18.68h11.72c6.94,0,9.51,2.84,9.51,8.11v4.1c0,5.23-2.79,8.07-9.78,8.07h-5.77v9.73h-5.68v-30.01ZM409.93,23.69h-5.72v10.27h5.72c3.2,0,4.15-1.17,4.15-3.65v-3.06c0-2.48-1.04-3.56-4.15-3.56Z"/>
          <path class="cls-1" d="M431.92,49.15c-7.53,0-9.55-4.15-9.55-8.65v-5.54c0-4.51,2.03-8.65,9.55-8.65s9.55,4.15,9.55,8.65v5.54c0,4.51-2.03,8.65-9.55,8.65ZM431.92,30.99c-2.93,0-4.06,1.31-4.06,3.79v5.9c0,2.48,1.13,3.79,4.06,3.79s4.06-1.31,4.06-3.79v-5.9c0-2.48-1.13-3.79-4.06-3.79Z"/>
          <path class="cls-1" d="M456.3,31.35c-2.12.95-3.83,1.94-5.81,3.2v14.15h-5.5v-21.95h4.64l.36,2.43c1.22-.81,3.83-2.34,5.77-2.88l.54,5.05Z"/>
          <path class="cls-1" d="M472.2,48.29c-1.17.5-3.42.86-4.82.86-4.01,0-6.04-1.89-6.04-5.81v-12.21h-3.29v-4.37h3.29v-5.45l5.5-.77v6.22h5.63l-.36,4.37h-5.27v11.49c0,1.17.54,1.94,1.98,1.94.81,0,1.8-.18,2.75-.45l.63,4.19Z"/>
          <path class="cls-1" d="M489.15,21.75c-1.04-.23-2.25-.36-3.15-.36-2.16,0-2.48.95-2.48,2.61v2.75h5.59l-.31,4.37h-5.27v17.57h-5.5v-17.57h-3.51v-4.37h3.51v-3.06c0-4.55,2.12-6.8,6.99-6.8,1.71,0,3.29.23,4.73.63l-.59,4.24Z"/>
          <path class="cls-1" d="M500.55,49.15c-7.53,0-9.55-4.15-9.55-8.65v-5.54c0-4.51,2.03-8.65,9.55-8.65s9.55,4.15,9.55,8.65v5.54c0,4.51-2.03,8.65-9.55,8.65ZM494.02,19h4.55v4.73h-4.55v-4.73ZM500.55,30.99c-2.93,0-4.06,1.31-4.06,3.79v5.9c0,2.48,1.13,3.79,4.06,3.79s4.06-1.31,4.06-3.79v-5.9c0-2.48-1.13-3.79-4.06-3.79ZM502.53,19h4.55v4.73h-4.55v-4.73Z"/>
          <path class="cls-1" d="M525.88,48.7l-2.93,8.88h-5.23l2.75-8.88h-1.94l-6.94-21.95h5.63l5,16.67,5.05-16.67h5.63l-7.03,21.95Z"/>
        </g>
        <g>
          <g>
            <polygon class="cls-1" points="291.83 15.84 296.04 11.63 291.83 7.42 287.63 11.63 291.83 15.84"/>
            <polygon class="cls-1" points="297.49 11.63 301.69 7.42 305.9 11.63 301.69 15.84 297.49 11.63"/>
            <polygon class="cls-1" points="281.79 11.63 254.54 11.63 254.54 18.6 264.15 18.6 264.15 48.67 272.17 48.67 272.17 18.6 281.79 18.6 281.79 11.63"/>
            <path class="cls-1" d="M336.64,39.84h5.11v-21.24h-25.82v30.07h8.02v-8.83h3.35l6.33,8.83h9.32l-6.31-8.83ZM333.72,32.87h-9.78v-7.29h9.78v7.29Z"/>
            <path class="cls-1" d="M347.96,48.67h8v-11.78h6.11c3.36,0,5.28.04,5.28,3.44v8.34h8.02v-8.49c0-5.94-.88-9.05-7.87-9.97l8.31-11.6h-9.35l-8.08,11.3h-2.41v-11.3h-8v30.07Z"/>
            <path class="cls-1" d="M301.69,38.13v-19.53h8.03v20.05c0,8.02-3.78,10.26-12.59,10.26-12.04,0-13.32-3.04-13.32-10.26v-20.05h8.01v19.89c0,3.42,1.93,3.45,5.31,3.45s4.56-.28,4.56-3.81Z"/>
            <path class="cls-1" d="M211.86,30.11c-3.37,0-5.29-.02-5.29-3.44v-8.06h-8.02v8.23c0,6.22.95,9.35,8.94,10.09v11.75h8.02v-11.74c6.22-.65,8.94-3.29,8.94-10.09v-8.23h-8.01v7.7c0,3.53-1.16,3.81-4.57,3.81Z"/>
            <polygon class="cls-1" points="193.5 25.18 179.83 25.18 179.83 30.31 192.66 30.31 192.66 36.89 179.83 36.89 179.83 42.1 193.78 42.1 193.78 48.67 171.81 48.67 171.81 18.6 193.5 18.6 193.5 25.18"/>
            <polygon class="cls-1" points="125.47 42.1 115.61 42.1 115.61 18.6 107.59 18.6 107.59 48.67 133.49 48.67 133.49 18.6 125.47 18.6 125.47 42.1"/>
            <polygon class="cls-1" points="252.51 25.58 244.82 25.58 244.82 48.67 236.8 48.67 236.8 25.58 229.11 25.58 229.11 18.6 252.51 18.6 252.51 25.58"/>
            <path class="cls-1" d="M73.95,48.92h8.02v-15.28h6.1c3.37,0,5.29.05,5.29,3.46v11.82h8.02v-11.98c0-5.99-.89-9.1-8.04-10l8.56-15.07h-9.3l-8.4,14.8h-2.24v-14.8h-8.02v37.05Z"/>
            <path class="cls-1" d="M147.71,18.6v12.23c0,4.21,1.02,6.82,3.77,9.74l1.17,1.23,1.23-1.23c2.7-2.89,3.7-5.62,3.7-9.74v-12.23h8.02v12.23c0,10.53-5.42,14.59-8.51,17.84h-8.89c-3.08-3.25-8.5-7.31-8.5-17.84v-12.23h8.01Z"/>
          </g>
          <g>
            <path class="cls-1" d="M29.03,56.43l-2.91,1.82-1.92-4.66,4.84,2.85ZM24.39,43.62l4.67,2.89-2.77,1.87-1.91-4.77ZM24.24,33.57l4.9,2.96-2.87,2.08-2.03-5.04ZM32.01,41.66l4.79-2.98-1.86,4.88-2.93-1.9ZM24.31,48.61l8.98,5.44-2.72,1.76-4.66-2.62-1.6-4.59ZM27.83,48.92l8.88-5.37-1.43,4.32-4.62,3.13-2.83-2.07ZM24.32,38.79l9.05,5.2-2.98,2.04-4.52-2.73-1.55-4.5ZM27.7,39.11l9.02-5.43-1.63,4.64-4.39,2.65-3-1.87ZM27.42,33.91h6.02l-2.86,2.26-3.16-2.26ZM32.01,51.34l4.79-2.97-1.86,4.88-2.93-1.91ZM30.42,30.5s-4.84-13.99-5.77-16.79c-.38-1.15-.53-2.12.19-3.07l5.57-7.31,5.56,7.31c.73.95.57,1.93.2,3.07-.92,2.8-5.76,16.79-5.76,16.79ZM57.83,32.1h-25.71s11.71-6.02,11.71-6.02c6.53-3.36,8.69-.55,11.08,2.41l2.91,3.61ZM31.55,30.81l8.08-14.48c1.05-1.87,3.73-2.81,6.07-1.4l9.08,5.45-4.56.02c-2,0-3.59.76-5.04,1.69l-13.63,8.73ZM2.99,32.1l2.92-3.61c2.39-2.96,4.55-5.77,11.08-2.41l11.71,6.03H2.99ZM29.27,30.81l-13.63-8.73c-1.45-.93-3.04-1.69-5.05-1.69l-4.55-.02,9.08-5.45c2.35-1.41,5.03-.47,6.08,1.4l8.08,14.48ZM27.3,59.22l9.41-5.56-1.8,5.41c-1.44.21-2.91.33-4.42.33-1.08,0-2.14-.06-3.19-.17Z"/>
            <path class="cls-1" d="M30.41,0C13.62,0,0,13.62,0,30.41s13.62,30.42,30.41,30.42,30.42-13.62,30.42-30.42S47.22,0,30.41,0ZM30.41,59.38c-15.99,0-28.96-12.97-28.96-28.96S14.42,1.44,30.41,1.44s28.98,12.98,28.98,28.97-12.97,28.96-28.98,28.96Z"/>
          </g>
        </g>
      </g>
      <g>
        <path class="cls-1" d="M329.03,103.22h-4.59v-2.43c-1.89,1.71-4.23,2.88-7.47,2.88-3.78,0-5.08-2.02-5.08-4.99,0-.72.09-1.49.23-2.29l1.12-6.39c.99-5.62,2.02-9.13,10.66-9.13.81,0,2.39.14,3.6.41l1.57-8.91,5.54-.76-5.58,31.63ZM326.74,85.68c-.99-.22-2.43-.27-3.19-.27-3.46,0-4.37,1.39-4.86,4.27l-1.35,7.74c-.04.27-.04.41-.04.54,0,.81.54,1.17,1.53,1.17,2.29,0,4.95-1.84,6.12-3.28l1.8-10.17Z"/>
        <path class="cls-1" d="M340.51,96.83c-.23,1.26-.27,2.34,1.71,2.34,2.34,0,5.58-1.08,8.41-2.52l1.17,4.14c-2.65,1.62-6.7,2.88-10.35,2.88-5.8,0-6.97-3.24-6.16-7.83l1.17-6.66c.94-5.17,3.38-8.32,9.99-8.32,4.18,0,7.02,2.16,7.02,5.71,0,3.91-2.56,6.16-8.55,8.01-2.65.81-3.19.95-4.23,1.22l-.18,1.03ZM348.29,86.8c0-.99-.85-1.71-2.29-1.71-2.47,0-3.69,1.53-4.05,3.6l-.4,2.25c.76-.23,1.08-.31,3.28-.99,2.43-.76,3.46-1.71,3.46-3.15Z"/>
        <path class="cls-1" d="M371.92,106.55c-.85,4.77-3.15,5.98-8.14,5.98-2.12,0-6.39-.58-9.81-1.71l1.04-4c2.75.81,5.89,1.49,8.64,1.49,2.25,0,2.7-.68,3.01-2.56l.86-4.81c-2.43,1.35-4.73,1.84-6.93,1.84-3.78,0-5.08-2.02-5.08-4.99,0-.72.09-1.48.22-2.29l.99-5.49c1.21-6.84,2.97-9.13,10.84-9.13,2.83,0,6.34.76,8.59,1.67l-4.23,24.03ZM370.21,85.72c-.99-.18-2.07-.31-3.19-.31-3.46,0-4.37,1.44-4.86,4.32l-1.21,6.79c-.04.27-.04.41-.04.54,0,.81.54,1.17,1.53,1.17,1.71,0,3.96-.77,5.89-2.02l1.89-10.48ZM362.56,74.25l2.83-1.12c.36,1.71,1.21,2.93,3.38,2.93s3.38-1.4,4.18-3.15l2.61,1.39c-.81,2.43-2.92,4.9-7.2,4.9-3.55,0-5.58-2.43-5.8-4.95Z"/>
        <path class="cls-1" d="M383.75,96.83c-.23,1.26-.27,2.34,1.71,2.34,2.34,0,5.58-1.08,8.41-2.52l1.17,4.14c-2.65,1.62-6.7,2.88-10.35,2.88-5.8,0-6.97-3.24-6.16-7.83l1.17-6.66c.94-5.17,3.38-8.32,9.99-8.32,4.18,0,7.02,2.16,7.02,5.71,0,3.91-2.56,6.16-8.55,8.01-2.65.81-3.19.95-4.23,1.22l-.18,1.03ZM391.54,86.8c0-.99-.85-1.71-2.29-1.71-2.47,0-3.69,1.53-4.05,3.6l-.4,2.25c.76-.23,1.08-.31,3.28-.99,2.43-.76,3.46-1.71,3.46-3.15Z"/>
        <path class="cls-1" d="M412.6,85.81c-2.57,1.4-4.18,2.43-6.53,3.92l-2.38,13.5h-5.4l3.78-21.46,4.72-.81-.23,3.19c1.53-1.12,3.78-2.47,5.62-3.24l.41,4.9Z"/>
        <path class="cls-1" d="M425.87,103.22l-3.15-21.37,5.35-.76,2.07,17.37,5.17-11.65c.5-1.17.63-2.11.63-3.01,0-.72-.09-1.35-.31-2.07l5.26-.76c.27.85.4,1.93.4,2.74,0,1.08-.13,2.61-.76,3.91l-7.24,15.61h-7.42Z"/>
        <path class="cls-1" d="M448.06,96.83c-.23,1.26-.27,2.34,1.71,2.34,2.34,0,5.58-1.08,8.41-2.52l1.17,4.14c-2.65,1.62-6.7,2.88-10.35,2.88-5.8,0-6.97-3.24-6.16-7.83l1.17-6.66c.94-5.17,3.38-8.32,9.99-8.32,4.18,0,7.02,2.16,7.02,5.71,0,3.91-2.56,6.16-8.55,8.01-2.65.81-3.19.95-4.23,1.22l-.18,1.03ZM455.84,86.8c0-.99-.85-1.71-2.29-1.71-2.47,0-3.69,1.53-4.05,3.6l-.4,2.25c.76-.23,1.08-.31,3.28-.99,2.43-.76,3.46-1.71,3.46-3.15Z"/>
        <path class="cls-1" d="M476.9,85.81c-2.57,1.4-4.18,2.43-6.53,3.92l-2.38,13.5h-5.4l3.78-21.46,4.72-.81-.23,3.19c1.53-1.12,3.78-2.47,5.62-3.24l.41,4.9Z"/>
        <path class="cls-1" d="M480.55,81.72l5.53-.76-3.92,22.27h-5.4l3.78-21.51ZM482.21,72.36l5.54-.76-1.08,6.12-5.53.81,1.08-6.16Z"/>
        <path class="cls-1" d="M502.33,85.81c-2.57,1.4-4.18,2.43-6.53,3.92l-2.38,13.5h-5.4l3.78-21.46,4.72-.81-.23,3.19c1.53-1.12,3.78-2.47,5.62-3.24l.41,4.9Z"/>
        <path class="cls-1" d="M505.97,81.72l5.53-.76-3.92,22.27h-5.4l3.78-21.51ZM507.64,72.36l5.54-.76-1.08,6.12-5.53.81,1.08-6.16Z"/>
        <path class="cls-1" d="M513.98,99.04l11.43-13.45h-9.31l.63-4.27h14.98l-.04,4.14-11.47,13.45h9.45l-.72,4.32h-14.76l-.18-4.18Z"/>
      </g>
    </g>
  </g>
</svg>