<svg width="554" height="348" viewBox="0 0 554 348" fill="none" xmlns="http://www.w3.org/2000/svg">
<g clip-path="url(#clip0_527_63489)">
<path opacity="0.05" d="M319.142 332.297L153.541 226.766C136.03 215.566 116.663 206.329 92.194 206.329L36.8776 206.098L147.162 140.17C175.69 123.082 208.277 134.512 220.918 157.143L319.026 332.297H319.142ZM0 347.885L35.486 304.24C64.4778 268.447 90.6864 234.386 170.124 275.144L312.416 348H0V347.885ZM346.858 332.297L444.966 157.143C457.723 134.512 490.194 123.197 518.722 140.17L629.006 206.098L573.69 206.329C549.453 206.329 530.086 215.566 512.459 226.766L346.858 332.297ZM666 347.885H353.7L495.992 275.029C575.314 234.386 601.522 268.332 630.63 304.125L666 347.769V347.885ZM333.058 328.487C333.058 328.487 274.263 159.336 263.014 125.506C258.375 111.651 256.52 99.8739 265.333 88.3278L333.058 0L400.667 88.3278C409.48 99.8739 407.625 111.651 403.102 125.506C391.969 159.336 333.174 328.487 333.174 328.487" fill="white"/>
</g>
<defs>
<clipPath id="clip0_527_63489">
<rect width="554" height="348" fill="white"/>
</clipPath>
</defs>
</svg>
